<svg version="1.1" xmlns="http://www.w3.org/2000/svg" xmlns:xlink="http://www.w3.org/1999/xlink" width="1551.1999999999998" height="1038.4"><defs/><g transform="scale(2,2)"><g transform="scale(2,2)"><rect fill="rgb(175,175,175)" stroke="none" x="0" y="0" width="775.5999999999999" height="519.2" fill-opacity="1"/></g><path fill="none" stroke="rgb(0,0,0)" paint-order="fill stroke markers" d=" M 102.10965424683246 300.9497893416991 L 117.51949892193767 340.08519897401453" stroke-opacity="1" stroke-linecap="round" stroke-miterlimit="10"/><path fill="rgb(75,55,60)" stroke="rgb(55,45,60)" paint-order="fill stroke markers" d=" M 98.51082893271172 367.9991858729557 C 98.51082893271172 351.4306433789557 111.94228643871172 337.9991858729557 128.51082893271172 337.9991858729557 C 145.0793714267117 337.9991858729557 158.51082893271172 351.4306433789557 158.51082893271172 367.9991858729557 C 158.51082893271172 384.5677283669557 145.0793714267117 397.9991858729557 128.51082893271172 397.9991858729557 C 111.94228643871172 397.9991858729557 98.51082893271172 384.5677283669557 98.51082893271172 367.9991858729557" fill-opacity="0.2549019607843137" stroke-opacity="1" stroke-linecap="round" stroke-miterlimit="10"/><g><text fill="none" stroke="rgb(255,255,255)" font-family="sans-serif" font-size="25px" font-style="normal" font-weight="normal" text-decoration="normal" x="128.51082893271172" y="367.9991858729557" text-anchor="middle" dominant-baseline="alphabetic" stroke-opacity="1" stroke-linecap="round" stroke-miterlimit="10">189</text><text fill="rgb(255,255,255)" stroke="none" font-family="sans-serif" font-size="25px" font-style="normal" font-weight="normal" text-decoration="normal" x="128.51082893271172" y="367.9991858729557" text-anchor="middle" dominant-baseline="alphabetic" fill-opacity="1">189</text></g><path fill="none" stroke="rgb(0,0,0)" paint-order="fill stroke markers" d=" M 136.62080592649576 203.14242536015152 L 107.4861234052805 247.89429989505777" stroke-opacity="1" stroke-linecap="round" stroke-miterlimit="10"/><path fill="rgb(75,55,60)" stroke="rgb(55,45,60)" paint-order="fill stroke markers" d=" M 61.11832423605841 273.0358024427579 C 61.11832423605841 256.46725994875794 74.54978174205841 243.03580244275793 91.11832423605841 243.03580244275793 C 107.68686673005841 243.03580244275793 121.11832423605841 256.46725994875794 121.11832423605841 273.0358024427579 C 121.11832423605841 289.6043449367579 107.68686673005841 303.0358024427579 91.11832423605841 303.0358024427579 C 74.54978174205841 303.0358024427579 61.11832423605841 289.6043449367579 61.11832423605841 273.0358024427579" fill-opacity="0.2549019607843137" stroke-opacity="1" stroke-linecap="round" stroke-miterlimit="10"/><g><text fill="none" stroke="rgb(255,255,255)" font-family="sans-serif" font-size="25px" font-style="normal" font-weight="normal" text-decoration="normal" x="91.11832423605841" y="273.0358024427579" text-anchor="middle" dominant-baseline="alphabetic" stroke-opacity="1" stroke-linecap="round" stroke-miterlimit="10">31</text><text fill="rgb(255,255,255)" stroke="none" font-family="sans-serif" font-size="25px" font-style="normal" font-weight="normal" text-decoration="normal" x="91.11832423605841" y="273.0358024427579" text-anchor="middle" dominant-baseline="alphabetic" fill-opacity="1">31</text></g><path fill="none" stroke="rgb(0,0,0)" paint-order="fill stroke markers" d=" M 169.3564042649399 203.1424253601515 L 198.49108678615522 247.89429989505783" stroke-opacity="1" stroke-linecap="round" stroke-miterlimit="10"/><path fill="rgb(75,55,60)" stroke="rgb(55,45,60)" paint-order="fill stroke markers" d=" M 184.85888595537727 273.0358024427579 C 184.85888595537727 256.46725994875794 198.2903434613773 243.03580244275793 214.85888595537727 243.03580244275793 C 231.42742844937726 243.03580244275793 244.85888595537727 256.46725994875794 244.85888595537727 273.0358024427579 C 244.85888595537727 289.6043449367579 231.42742844937726 303.0358024427579 214.85888595537727 303.0358024427579 C 198.2903434613773 303.0358024427579 184.85888595537727 289.6043449367579 184.85888595537727 273.0358024427579" fill-opacity="0.2549019607843137" stroke-opacity="1" stroke-linecap="round" stroke-miterlimit="10"/><g><text fill="none" stroke="rgb(255,255,255)" font-family="sans-serif" font-size="25px" font-style="normal" font-weight="normal" text-decoration="normal" x="214.85888595537727" y="273.0358024427579" text-anchor="middle" dominant-baseline="alphabetic" stroke-opacity="1" stroke-linecap="round" stroke-miterlimit="10">398</text><text fill="rgb(255,255,255)" stroke="none" font-family="sans-serif" font-size="25px" font-style="normal" font-weight="normal" text-decoration="normal" x="214.85888595537727" y="273.0358024427579" text-anchor="middle" dominant-baseline="alphabetic" fill-opacity="1">398</text></g><path fill="none" stroke="rgb(0,0,0)" paint-order="fill stroke markers" d=" M 227.45688900334218 117.41648015715026 L 176.25994381685044 159.06828448266975" stroke-opacity="1" stroke-linecap="round" stroke-miterlimit="10"/><path fill="rgb(75,55,60)" stroke="rgb(55,45,60)" paint-order="fill stroke markers" d=" M 122.98860509571784 178.00092281245136 C 122.98860509571784 161.43238031845135 136.42006260171786 148.00092281245136 152.98860509571784 148.00092281245136 C 169.55714758971783 148.00092281245136 182.98860509571784 161.43238031845135 182.98860509571784 178.00092281245136 C 182.98860509571784 194.56946530645138 169.55714758971783 208.00092281245136 152.98860509571784 208.00092281245136 C 136.42006260171786 208.00092281245136 122.98860509571784 194.56946530645138 122.98860509571784 178.00092281245136" fill-opacity="0.2549019607843137" stroke-opacity="1" stroke-linecap="round" stroke-miterlimit="10"/><g><text fill="none" stroke="rgb(255,255,255)" font-family="sans-serif" font-size="25px" font-style="normal" font-weight="normal" text-decoration="normal" x="152.98860509571784" y="178.00092281245136" text-anchor="middle" dominant-baseline="alphabetic" stroke-opacity="1" stroke-linecap="round" stroke-miterlimit="10">271</text><text fill="rgb(255,255,255)" stroke="none" font-family="sans-serif" font-size="25px" font-style="normal" font-weight="normal" text-decoration="normal" x="152.98860509571784" y="178.00092281245136" text-anchor="middle" dominant-baseline="alphabetic" fill-opacity="1">271</text></g><path fill="none" stroke="rgb(0,0,0)" paint-order="fill stroke markers" d=" M 275.6062394827982 300.9497893416991 L 260.19639480769297 340.0851989740146" stroke-opacity="1" stroke-linecap="round" stroke-miterlimit="10"/><path fill="rgb(75,55,60)" stroke="rgb(55,45,60)" paint-order="fill stroke markers" d=" M 219.20506479691892 367.9991858729557 C 219.20506479691892 351.4306433789557 232.63652230291893 337.9991858729557 249.20506479691892 337.9991858729557 C 265.7736072909189 337.9991858729557 279.2050647969189 351.4306433789557 279.2050647969189 367.9991858729557 C 279.2050647969189 384.5677283669557 265.7736072909189 397.9991858729557 249.20506479691892 397.9991858729557 C 232.63652230291893 397.9991858729557 219.20506479691892 384.5677283669557 219.20506479691892 367.9991858729557" fill-opacity="0.2549019607843137" stroke-opacity="1" stroke-linecap="round" stroke-miterlimit="10"/><g><text fill="none" stroke="rgb(255,255,255)" font-family="sans-serif" font-size="25px" font-style="normal" font-weight="normal" text-decoration="normal" x="249.20506479691892" y="367.9991858729557" text-anchor="middle" dominant-baseline="alphabetic" stroke-opacity="1" stroke-linecap="round" stroke-miterlimit="10">558</text><text fill="rgb(255,255,255)" stroke="none" font-family="sans-serif" font-size="25px" font-style="normal" font-weight="normal" text-decoration="normal" x="249.20506479691892" y="367.9991858729557" text-anchor="middle" dominant-baseline="alphabetic" fill-opacity="1">558</text></g><path fill="none" stroke="rgb(0,0,0)" paint-order="fill stroke markers" d=" M 332.10005118400954 203.14242536015155 L 302.9653686627943 247.89429989505777" stroke-opacity="1" stroke-linecap="round" stroke-miterlimit="10"/><path fill="rgb(75,55,60)" stroke="rgb(55,45,60)" paint-order="fill stroke markers" d=" M 256.5975694935722 273.0358024427579 C 256.5975694935722 256.46725994875794 270.02902699957224 243.03580244275793 286.5975694935722 243.03580244275793 C 303.1661119875722 243.03580244275793 316.5975694935722 256.46725994875794 316.5975694935722 273.0358024427579 C 316.5975694935722 289.6043449367579 303.1661119875722 303.0358024427579 286.5975694935722 303.0358024427579 C 270.02902699957224 303.0358024427579 256.5975694935722 289.6043449367579 256.5975694935722 273.0358024427579" fill-opacity="0.2549019607843137" stroke-opacity="1" stroke-linecap="round" stroke-miterlimit="10"/><g><text fill="none" stroke="rgb(255,255,255)" font-family="sans-serif" font-size="25px" font-style="normal" font-weight="normal" text-decoration="normal" x="286.5975694935722" y="273.0358024427579" text-anchor="middle" dominant-baseline="alphabetic" stroke-opacity="1" stroke-linecap="round" stroke-miterlimit="10">583</text><text fill="rgb(255,255,255)" stroke="none" font-family="sans-serif" font-size="25px" font-style="normal" font-weight="normal" text-decoration="normal" x="286.5975694935722" y="273.0358024427579" text-anchor="middle" dominant-baseline="alphabetic" fill-opacity="1">583</text></g><path fill="none" stroke="rgb(0,0,0)" paint-order="fill stroke markers" d=" M 364.8356495224537 203.1424253601515 L 393.9703320436689 247.89429989505766" stroke-opacity="1" stroke-linecap="round" stroke-miterlimit="10"/><path fill="rgb(75,55,60)" stroke="rgb(55,45,60)" paint-order="fill stroke markers" d=" M 380.3381312128911 273.0358024427579 C 380.3381312128911 256.46725994875794 393.7695887188911 243.03580244275793 410.3381312128911 243.03580244275793 C 426.90667370689107 243.03580244275793 440.3381312128911 256.46725994875794 440.3381312128911 273.0358024427579 C 440.3381312128911 289.6043449367579 426.90667370689107 303.0358024427579 410.3381312128911 303.0358024427579 C 393.7695887188911 303.0358024427579 380.3381312128911 289.6043449367579 380.3381312128911 273.0358024427579" fill-opacity="0.2549019607843137" stroke-opacity="1" stroke-linecap="round" stroke-miterlimit="10"/><g><text fill="none" stroke="rgb(255,255,255)" font-family="sans-serif" font-size="25px" font-style="normal" font-weight="normal" text-decoration="normal" x="410.3381312128911" y="273.0358024427579" text-anchor="middle" dominant-baseline="alphabetic" stroke-opacity="1" stroke-linecap="round" stroke-miterlimit="10">704</text><text fill="rgb(255,255,255)" stroke="none" font-family="sans-serif" font-size="25px" font-style="normal" font-weight="normal" text-decoration="normal" x="410.3381312128911" y="273.0358024427579" text-anchor="middle" dominant-baseline="alphabetic" fill-opacity="1">704</text></g><path fill="none" stroke="rgb(0,0,0)" paint-order="fill stroke markers" d=" M 273.99956644560734 117.4164801571503 L 325.19651163209903 159.06828448266975" stroke-opacity="1" stroke-linecap="round" stroke-miterlimit="10"/><path fill="rgb(75,55,60)" stroke="rgb(55,45,60)" paint-order="fill stroke markers" d=" M 318.46785035323165 178.00092281245136 C 318.46785035323165 161.43238031845135 331.89930785923167 148.00092281245136 348.46785035323165 148.00092281245136 C 365.03639284723164 148.00092281245136 378.46785035323165 161.43238031845135 378.46785035323165 178.00092281245136 C 378.46785035323165 194.56946530645138 365.03639284723164 208.00092281245136 348.46785035323165 208.00092281245136 C 331.89930785923167 208.00092281245136 318.46785035323165 194.56946530645138 318.46785035323165 178.00092281245136" fill-opacity="0.2549019607843137" stroke-opacity="1" stroke-linecap="round" stroke-miterlimit="10"/><g><text fill="none" stroke="rgb(255,255,255)" font-family="sans-serif" font-size="25px" font-style="normal" font-weight="normal" text-decoration="normal" x="348.46785035323165" y="178.00092281245136" text-anchor="middle" dominant-baseline="alphabetic" stroke-opacity="1" stroke-linecap="round" stroke-miterlimit="10">694</text><text fill="rgb(255,255,255)" stroke="none" font-family="sans-serif" font-size="25px" font-style="normal" font-weight="normal" text-decoration="normal" x="348.46785035323165" y="178.00092281245136" text-anchor="middle" dominant-baseline="alphabetic" fill-opacity="1">694</text></g><path fill="none" stroke="rgb(0,0,0)" paint-order="fill stroke markers" d=" M 358.42747736953027 76.10368039157902 L 280.1007503549445 92.38016143578969" stroke-opacity="1" stroke-linecap="round" stroke-miterlimit="10"/><path fill="rgb(75,55,60)" stroke="rgb(55,45,60)" paint-order="fill stroke markers" d=" M 220.72822772447475 98.48384182736872 C 220.72822772447475 81.91529933336872 234.15968523047474 68.48384182736872 250.72822772447475 68.48384182736872 C 267.29677021847476 68.48384182736872 280.7282277244748 81.91529933336872 280.7282277244748 98.48384182736872 C 280.7282277244748 115.05238432136872 267.29677021847476 128.48384182736874 250.72822772447475 128.48384182736874 C 234.15968523047474 128.48384182736874 220.72822772447475 115.05238432136872 220.72822772447475 98.48384182736872" fill-opacity="0.2549019607843137" stroke-opacity="1" stroke-linecap="round" stroke-miterlimit="10"/><g><text fill="none" stroke="rgb(255,255,255)" font-family="sans-serif" font-size="25px" font-style="normal" font-weight="normal" text-decoration="normal" x="250.72822772447475" y="98.48384182736872" text-anchor="middle" dominant-baseline="alphabetic" stroke-opacity="1" stroke-linecap="round" stroke-miterlimit="10">545</text><text fill="rgb(255,255,255)" stroke="none" font-family="sans-serif" font-size="25px" font-style="normal" font-weight="normal" text-decoration="normal" x="250.72822772447475" y="98.48384182736872" text-anchor="middle" dominant-baseline="alphabetic" fill-opacity="1">545</text></g><path fill="none" stroke="rgb(0,0,0)" paint-order="fill stroke markers" d=" M 501.60043355439257 117.41648015715026 L 450.4034883679008 159.0682844826698" stroke-opacity="1" stroke-linecap="round" stroke-miterlimit="10"/><path fill="rgb(75,55,60)" stroke="rgb(55,45,60)" paint-order="fill stroke markers" d=" M 397.13214964676826 178.00092281245136 C 397.13214964676826 161.43238031845135 410.56360715276827 148.00092281245136 427.13214964676826 148.00092281245136 C 443.70069214076824 148.00092281245136 457.13214964676826 161.43238031845135 457.13214964676826 178.00092281245136 C 457.13214964676826 194.56946530645138 443.70069214076824 208.00092281245136 427.13214964676826 208.00092281245136 C 410.56360715276827 208.00092281245136 397.13214964676826 194.56946530645138 397.13214964676826 178.00092281245136" fill-opacity="0.2549019607843137" stroke-opacity="1" stroke-linecap="round" stroke-miterlimit="10"/><g><text fill="none" stroke="rgb(255,255,255)" font-family="sans-serif" font-size="25px" font-style="normal" font-weight="normal" text-decoration="normal" x="427.13214964676826" y="178.00092281245136" text-anchor="middle" dominant-baseline="alphabetic" stroke-opacity="1" stroke-linecap="round" stroke-miterlimit="10">768</text><text fill="rgb(255,255,255)" stroke="none" font-family="sans-serif" font-size="25px" font-style="normal" font-weight="normal" text-decoration="normal" x="427.13214964676826" y="178.00092281245136" text-anchor="middle" dominant-baseline="alphabetic" fill-opacity="1">768</text></g><path fill="none" stroke="rgb(0,0,0)" paint-order="fill stroke markers" d=" M 549.7497840338486 300.949789341699 L 534.3399393587434 340.0851989740145" stroke-opacity="1" stroke-linecap="round" stroke-miterlimit="10"/><path fill="rgb(75,55,60)" stroke="rgb(55,45,60)" paint-order="fill stroke markers" d=" M 493.3486093479694 367.9991858729557 C 493.3486093479694 351.4306433789557 506.7800668539694 337.9991858729557 523.3486093479694 337.9991858729557 C 539.9171518419694 337.9991858729557 553.3486093479694 351.4306433789557 553.3486093479694 367.9991858729557 C 553.3486093479694 384.5677283669557 539.9171518419694 397.9991858729557 523.3486093479694 397.9991858729557 C 506.7800668539694 397.9991858729557 493.3486093479694 384.5677283669557 493.3486093479694 367.9991858729557" fill-opacity="0.2549019607843137" stroke-opacity="1" stroke-linecap="round" stroke-miterlimit="10"/><g><text fill="none" stroke="rgb(255,255,255)" font-family="sans-serif" font-size="25px" font-style="normal" font-weight="normal" text-decoration="normal" x="523.3486093479694" y="367.9991858729557" text-anchor="middle" dominant-baseline="alphabetic" stroke-opacity="1" stroke-linecap="round" stroke-miterlimit="10">885</text><text fill="rgb(255,255,255)" stroke="none" font-family="sans-serif" font-size="25px" font-style="normal" font-weight="normal" text-decoration="normal" x="523.3486093479694" y="367.9991858729557" text-anchor="middle" dominant-baseline="alphabetic" fill-opacity="1">885</text></g><path fill="none" stroke="rgb(0,0,0)" paint-order="fill stroke markers" d=" M 606.2435957350599 203.1424253601516 L 577.1089132138447 247.89429989505777" stroke-opacity="1" stroke-linecap="round" stroke-miterlimit="10"/><path fill="rgb(75,55,60)" stroke="rgb(55,45,60)" paint-order="fill stroke markers" d=" M 530.7411140446227 273.0358024427579 C 530.7411140446227 256.46725994875794 544.1725715506227 243.03580244275793 560.7411140446227 243.03580244275793 C 577.3096565386227 243.03580244275793 590.7411140446227 256.46725994875794 590.7411140446227 273.0358024427579 C 590.7411140446227 289.6043449367579 577.3096565386227 303.0358024427579 560.7411140446227 303.0358024427579 C 544.1725715506227 303.0358024427579 530.7411140446227 289.6043449367579 530.7411140446227 273.0358024427579" fill-opacity="0.2549019607843137" stroke-opacity="1" stroke-linecap="round" stroke-miterlimit="10"/><g><text fill="none" stroke="rgb(255,255,255)" font-family="sans-serif" font-size="25px" font-style="normal" font-weight="normal" text-decoration="normal" x="560.7411140446227" y="273.0358024427579" text-anchor="middle" dominant-baseline="alphabetic" stroke-opacity="1" stroke-linecap="round" stroke-miterlimit="10">942</text><text fill="rgb(255,255,255)" stroke="none" font-family="sans-serif" font-size="25px" font-style="normal" font-weight="normal" text-decoration="normal" x="560.7411140446227" y="273.0358024427579" text-anchor="middle" dominant-baseline="alphabetic" fill-opacity="1">942</text></g><path fill="none" stroke="rgb(0,0,0)" paint-order="fill stroke markers" d=" M 548.1431109966577 117.41648015715032 L 599.3400561831494 159.06828448266975" stroke-opacity="1" stroke-linecap="round" stroke-miterlimit="10"/><path fill="rgb(75,55,60)" stroke="rgb(55,45,60)" paint-order="fill stroke markers" d=" M 592.6113949042821 178.00092281245136 C 592.6113949042821 161.43238031845135 606.0428524102821 148.00092281245136 622.6113949042821 148.00092281245136 C 639.179937398282 148.00092281245136 652.6113949042821 161.43238031845135 652.6113949042821 178.00092281245136 C 652.6113949042821 194.56946530645138 639.179937398282 208.00092281245136 622.6113949042821 208.00092281245136 C 606.0428524102821 208.00092281245136 592.6113949042821 194.56946530645138 592.6113949042821 178.00092281245136" fill-opacity="0.2549019607843137" stroke-opacity="1" stroke-linecap="round" stroke-miterlimit="10"/><g><text fill="none" stroke="rgb(255,255,255)" font-family="sans-serif" font-size="25px" font-style="normal" font-weight="normal" text-decoration="normal" x="622.6113949042821" y="178.00092281245136" text-anchor="middle" dominant-baseline="alphabetic" stroke-opacity="1" stroke-linecap="round" stroke-miterlimit="10">982</text><text fill="rgb(255,255,255)" stroke="none" font-family="sans-serif" font-size="25px" font-style="normal" font-weight="normal" text-decoration="normal" x="622.6113949042821" y="178.00092281245136" text-anchor="middle" dominant-baseline="alphabetic" fill-opacity="1">982</text></g><path fill="none" stroke="rgb(0,0,0)" paint-order="fill stroke markers" d=" M 417.1725226304696 76.10368039157899 L 495.49924964505544 92.3801614357897" stroke-opacity="1" stroke-linecap="round" stroke-miterlimit="10"/><path fill="rgb(75,55,60)" stroke="rgb(55,45,60)" paint-order="fill stroke markers" d=" M 494.87177227552513 98.48384182736872 C 494.87177227552513 81.91529933336872 508.30322978152515 68.48384182736872 524.8717722755251 68.48384182736872 C 541.4403147695251 68.48384182736872 554.8717722755251 81.91529933336872 554.8717722755251 98.48384182736872 C 554.8717722755251 115.05238432136872 541.4403147695251 128.48384182736874 524.8717722755251 128.48384182736874 C 508.30322978152515 128.48384182736874 494.87177227552513 115.05238432136872 494.87177227552513 98.48384182736872" fill-opacity="0.2549019607843137" stroke-opacity="1" stroke-linecap="round" stroke-miterlimit="10"/><g><text fill="none" stroke="rgb(255,255,255)" font-family="sans-serif" font-size="25px" font-style="normal" font-weight="normal" text-decoration="normal" x="524.8717722755251" y="98.48384182736872" text-anchor="middle" dominant-baseline="alphabetic" stroke-opacity="1" stroke-linecap="round" stroke-miterlimit="10">873</text><text fill="rgb(255,255,255)" stroke="none" font-family="sans-serif" font-size="25px" font-style="normal" font-weight="normal" text-decoration="normal" x="524.8717722755251" y="98.48384182736872" text-anchor="middle" dominant-baseline="alphabetic" fill-opacity="1">873</text></g><path fill="rgb(75,55,60)" stroke="rgb(55,45,60)" paint-order="fill stroke markers" d=" M 357.79999999999995 70 C 357.79999999999995 53.431457506 371.23145750599997 40 387.79999999999995 40 C 404.36854249399994 40 417.79999999999995 53.431457506 417.79999999999995 70 C 417.79999999999995 86.568542494 404.36854249399994 100 387.79999999999995 100 C 371.23145750599997 100 357.79999999999995 86.568542494 357.79999999999995 70" fill-opacity="0.2549019607843137" stroke-opacity="1" stroke-linecap="round" stroke-miterlimit="10"/><g><text fill="none" stroke="rgb(255,255,255)" font-family="sans-serif" font-size="25px" font-style="normal" font-weight="normal" text-decoration="normal" x="387.79999999999995" y="70" text-anchor="middle" dominant-baseline="alphabetic" stroke-opacity="1" stroke-linecap="round" stroke-miterlimit="10">765</text><text fill="rgb(255,255,255)" stroke="none" font-family="sans-serif" font-size="25px" font-style="normal" font-weight="normal" text-decoration="normal" x="387.79999999999995" y="70" text-anchor="middle" dominant-baseline="alphabetic" fill-opacity="1">765</text></g></g></svg>