<svg xmlns="http://www.w3.org/2000/svg" version="1.1" width="410" height="400" viewBox="0 0 205 200"><g transform="scale(2,2) scale(2,2)"><g transform="scale(2,2)"><rect fill="rgb(255,255,255)" stroke="none" x="0" y="0" width="205" height="200" fill-opacity="1"/></g><path fill="none" stroke="rgb(0,0,0)" paint-order="fill stroke markers" d="M1 1L51 1M1 1L26 44.3M26 44.3L51 1M1 1L26 1M1 1L13.5 22.65M13.5 22.65L26 1M1 1L13.5 1M1 1L7.25 11.83M7.25 11.83L13.5 1M1 1L7.25 1M1 1L4.13 6.41M4.13 6.41L7.25 1M1 1L4.13 1M1 1L2.56 3.71M2.56 3.71L4.13 1M1 1L2.56 1M1 1L1.78 2.35M1.78 2.35L2.56 1M1 1L1.78 1M1 1L1.39 1.68M1.39 1.68L1.78 1M1.78 1L2.56 1M1.78 1L2.17 1.68M2.17 1.68L2.56 1M1.39 1.68L2.17 1.68M1.39 1.68L1.78 2.35M1.78 2.35L2.17 1.68M2.56 1L4.13 1M2.56 1L3.34 2.35M3.34 2.35L4.13 1M2.56 1L3.34 1M2.56 1L2.95 1.68M2.95 1.68L3.34 1M3.34 1L4.13 1M3.34 1L3.73 1.68M3.73 1.68L4.13 1M2.95 1.68L3.73 1.68M2.95 1.68L3.34 2.35M3.34 2.35L3.73 1.68M1.78 2.35L3.34 2.35M1.78 2.35L2.56 3.71M2.56 3.71L3.34 2.35M1.78 2.35L2.56 2.35M1.78 2.35L2.17 3.03M2.17 3.03L2.56 2.35M2.56 2.35L3.34 2.35M2.56 2.35L2.95 3.03M2.95 3.03L3.34 2.35M2.17 3.03L2.95 3.03M2.17 3.03L2.56 3.71M2.56 3.71L2.95 3.03M4.13 1L7.25 1M4.13 1L5.69 3.71M5.69 3.71L7.25 1M4.13 1L5.69 1M4.13 1L4.91 2.35M4.91 2.35L5.69 1M4.13 1L4.91 1M4.13 1L4.52 1.68M4.52 1.68L4.91 1M4.91 1L5.69 1M4.91 1L5.3 1.68M5.3 1.68L5.69 1M4.52 1.68L5.3 1.68M4.52 1.68L4.91 2.35M4.91 2.35L5.3 1.68M5.69 1L7.25 1M5.69 1L6.47 2.35M6.47 2.35L7.25 1M5.69 1L6.47 1M5.69 1L6.08 1.68M6.08 1.68L6.47 1M6.47 1L7.25 1M6.47 1L6.86 1.68M6.86 1.68L7.25 1M6.08 1.68L6.86 1.68M6.08 1.68L6.47 2.35M6.47 2.35L6.86 1.68M4.91 2.35L6.47 2.35M4.91 2.35L5.69 3.71M5.69 3.71L6.47 2.35M4.91 2.35L5.69 2.35M4.91 2.35L5.3 3.03M5.3 3.03L5.69 2.35M5.69 2.35L6.47 2.35M5.69 2.35L6.08 3.03M6.08 3.03L6.47 2.35M5.3 3.03L6.08 3.03M5.3 3.03L5.69 3.71M5.69 3.71L6.08 3.03M2.56 3.71L5.69 3.71M2.56 3.71L4.13 6.41M4.13 6.41L5.69 3.71M2.56 3.71L4.13 3.71M2.56 3.71L3.34 5.06M3.34 5.06L4.13 3.71M2.56 3.71L3.34 3.71M2.56 3.71L2.95 4.38M2.95 4.38L3.34 3.71M3.34 3.71L4.13 3.71M3.34 3.71L3.73 4.38M3.73 4.38L4.13 3.71M2.95 4.38L3.73 4.38M2.95 4.38L3.34 5.06M3.34 5.06L3.73 4.38M4.13 3.71L5.69 3.71M4.13 3.71L4.91 5.06M4.91 5.06L5.69 3.71M4.13 3.71L4.91 3.71M4.13 3.71L4.52 4.38M4.52 4.38L4.91 3.71M4.91 3.71L5.69 3.71M4.91 3.71L5.3 4.38M5.3 4.38L5.69 3.71M4.52 4.38L5.3 4.38M4.52 4.38L4.91 5.06M4.91 5.06L5.3 4.38M3.34 5.06L4.91 5.06M3.34 5.06L4.13 6.41M4.13 6.41L4.91 5.06M3.34 5.06L4.13 5.06M3.34 5.06L3.73 5.74M3.73 5.74L4.13 5.06M4.13 5.06L4.91 5.06M4.13 5.06L4.52 5.74M4.52 5.74L4.91 5.06M3.73 5.74L4.52 5.74M3.73 5.74L4.13 6.41M4.13 6.41L4.52 5.74M7.25 1L13.5 1M7.25 1L10.38 6.41M10.38 6.41L13.5 1M7.25 1L10.38 1M7.25 1L8.81 3.71M8.81 3.71L10.38 1M7.25 1L8.81 1M7.25 1L8.03 2.35M8.03 2.35L8.81 1M7.25 1L8.03 1M7.25 1L7.64 1.68M7.64 1.68L8.03 1M8.03 1L8.81 1M8.03 1L8.42 1.68M8.42 1.68L8.81 1M7.64 1.68L8.42 1.68M7.64 1.68L8.03 2.35M8.03 2.35L8.42 1.68M8.81 1L10.38 1M8.81 1L9.59 2.35M9.59 2.35L10.38 1M8.81 1L9.59 1M8.81 1L9.2 1.68M9.2 1.68L9.59 1M9.59 1L10.38 1M9.59 1L9.98 1.68M9.98 1.68L10.38 1M9.2 1.68L9.98 1.68M9.2 1.68L9.59 2.35M9.59 2.35L9.98 1.68M8.03 2.35L9.59 2.35M8.03 2.35L8.81 3.71M8.81 3.71L9.59 2.35M8.03 2.35L8.81 2.35M8.03 2.35L8.42 3.03M8.42 3.03L8.81 2.35M8.81 2.35L9.59 2.35M8.81 2.35L9.2 3.03M9.2 3.03L9.59 2.35M8.42 3.03L9.2 3.03M8.42 3.03L8.81 3.71M8.81 3.71L9.2 3.03M10.38 1L13.5 1M10.38 1L11.94 3.71M11.94 3.71L13.5 1M10.38 1L11.94 1M10.38 1L11.16 2.35M11.16 2.35L11.94 1M10.38 1L11.16 1M10.38 1L10.77 1.68M10.77 1.68L11.16 1M11.16 1L11.94 1M11.16 1L11.55 1.68M11.55 1.68L11.94 1M10.77 1.68L11.55 1.68M10.77 1.68L11.16 2.35M11.16 2.35L11.55 1.68M11.94 1L13.5 1M11.94 1L12.72 2.35M12.72 2.35L13.5 1M11.94 1L12.72 1M11.94 1L12.33 1.68M12.33 1.68L12.72 1M12.72 1L13.5 1M12.72 1L13.11 1.68M13.11 1.68L13.5 1M12.33 1.68L13.11 1.68M12.33 1.68L12.72 2.35M12.72 2.35L13.11 1.68M11.16 2.35L12.72 2.35M11.16 2.35L11.94 3.71M11.94 3.71L12.72 2.35M11.16 2.35L11.94 2.35M11.16 2.35L11.55 3.03M11.55 3.03L11.94 2.35M11.94 2.35L12.72 2.35M11.94 2.35L12.33 3.03M12.33 3.03L12.72 2.35M11.55 3.03L12.33 3.03M11.55 3.03L11.94 3.71M11.94 3.71L12.33 3.03M8.81 3.71L11.94 3.71M8.81 3.71L10.38 6.41M10.38 6.41L11.94 3.71M8.81 3.71L10.38 3.71M8.81 3.71L9.59 5.06M9.59 5.06L10.38 3.71M8.81 3.71L9.59 3.71M8.81 3.71L9.2 4.38M9.2 4.38L9.59 3.71M9.59 3.71L10.38 3.71M9.59 3.71L9.98 4.38M9.98 4.38L10.38 3.71M9.2 4.38L9.98 4.38M9.2 4.38L9.59 5.06M9.59 5.06L9.98 4.38M10.38 3.71L11.94 3.71M10.38 3.71L11.16 5.06M11.16 5.06L11.94 3.71M10.38 3.71L11.16 3.71M10.38 3.71L10.77 4.38M10.77 4.38L11.16 3.71M11.16 3.71L11.94 3.71M11.16 3.71L11.55 4.38M11.55 4.38L11.94 3.71M10.77 4.38L11.55 4.38M10.77 4.38L11.16 5.06M11.16 5.06L11.55 4.38M9.59 5.06L11.16 5.06M9.59 5.06L10.38 6.41M10.38 6.41L11.16 5.06M9.59 5.06L10.38 5.06M9.59 5.06L9.98 5.74M9.98 5.74L10.38 5.06M10.38 5.06L11.16 5.06M10.38 5.06L10.77 5.74M10.77 5.74L11.16 5.06M9.98 5.74L10.77 5.74M9.98 5.74L10.38 6.41M10.38 6.41L10.77 5.74M4.13 6.41L10.38 6.41M4.13 6.41L7.25 11.83M7.25 11.83L10.38 6.41M4.13 6.41L7.25 6.41M4.13 6.41L5.69 9.12M5.69 9.12L7.25 6.41M4.13 6.41L5.69 6.41M4.13 6.41L4.91 7.77M4.91 7.77L5.69 6.41M4.13 6.41L4.91 6.41M4.13 6.41L4.52 7.09M4.52 7.09L4.91 6.41M4.91 6.41L5.69 6.41M4.91 6.41L5.3 7.09M5.3 7.09L5.69 6.41M4.52 7.09L5.3 7.09M4.52 7.09L4.91 7.77M4.91 7.77L5.3 7.09M5.69 6.41L7.25 6.41M5.69 6.41L6.47 7.77M6.47 7.77L7.25 6.41M5.69 6.41L6.47 6.41M5.69 6.41L6.08 7.09M6.08 7.09L6.47 6.41M6.47 6.41L7.25 6.41M6.47 6.41L6.86 7.09M6.86 7.09L7.25 6.41M6.08 7.09L6.86 7.09M6.08 7.09L6.47 7.77M6.47 7.77L6.86 7.09M4.91 7.77L6.47 7.77M4.91 7.77L5.69 9.12M5.69 9.12L6.47 7.77M4.91 7.77L5.69 7.77M4.91 7.77L5.3 8.44M5.3 8.44L5.69 7.77M5.69 7.77L6.47 7.77M5.69 7.77L6.08 8.44M6.08 8.44L6.47 7.77M5.3 8.44L6.08 8.44M5.3 8.44L5.69 9.12M5.69 9.12L6.08 8.44M7.25 6.41L10.38 6.41M7.25 6.41L8.81 9.12M8.81 9.12L10.38 6.41M7.25 6.41L8.81 6.41M7.25 6.41L8.03 7.77M8.03 7.77L8.81 6.41M7.25 6.41L8.03 6.41M7.25 6.41L7.64 7.09M7.64 7.09L8.03 6.41M8.03 6.41L8.81 6.41M8.03 6.41L8.42 7.09M8.42 7.09L8.81 6.41M7.64 7.09L8.42 7.09M7.64 7.09L8.03 7.77M8.03 7.77L8.42 7.09M8.81 6.41L10.38 6.41M8.81 6.41L9.59 7.77M9.59 7.77L10.38 6.41M8.81 6.41L9.59 6.41M8.81 6.41L9.2 7.09M9.2 7.09L9.59 6.41M9.59 6.41L10.38 6.41M9.59 6.41L9.98 7.09M9.98 7.09L10.38 6.41M9.2 7.09L9.98 7.09M9.2 7.09L9.59 7.77M9.59 7.77L9.98 7.09M8.03 7.77L9.59 7.77M8.03 7.77L8.81 9.12M8.81 9.12L9.59 7.77M8.03 7.77L8.81 7.77M8.03 7.77L8.42 8.44M8.42 8.44L8.81 7.77M8.81 7.77L9.59 7.77M8.81 7.77L9.2 8.44M9.2 8.44L9.59 7.77M8.42 8.44L9.2 8.44M8.42 8.44L8.81 9.12M8.81 9.12L9.2 8.44M5.69 9.12L8.81 9.12M5.69 9.12L7.25 11.83M7.25 11.83L8.81 9.12M5.69 9.12L7.25 9.12M5.69 9.12L6.47 10.47M6.47 10.47L7.25 9.12M5.69 9.12L6.47 9.12M5.69 9.12L6.08 9.8M6.08 9.8L6.47 9.12M6.47 9.12L7.25 9.12M6.47 9.12L6.86 9.8M6.86 9.8L7.25 9.12M6.08 9.8L6.86 9.8M6.08 9.8L6.47 10.47M6.47 10.47L6.86 9.8M7.25 9.12L8.81 9.12M7.25 9.12L8.03 10.47M8.03 10.47L8.81 9.12M7.25 9.12L8.03 9.12M7.25 9.12L7.64 9.8M7.64 9.8L8.03 9.12M8.03 9.12L8.81 9.12M8.03 9.12L8.42 9.8M8.42 9.8L8.81 9.12M7.64 9.8L8.42 9.8M7.64 9.8L8.03 10.47M8.03 10.47L8.42 9.8M6.47 10.47L8.03 10.47M6.47 10.47L7.25 11.83M7.25 11.83L8.03 10.47M6.47 10.47L7.25 10.47M6.47 10.47L6.86 11.15M6.86 11.15L7.25 10.47M7.25 10.47L8.03 10.47M7.25 10.47L7.64 11.15M7.64 11.15L8.03 10.47M6.86 11.15L7.64 11.15M6.86 11.15L7.25 11.83M7.25 11.83L7.64 11.15M13.5 1L26 1M13.5 1L19.75 11.83M19.75 11.83L26 1M13.5 1L19.75 1M13.5 1L16.63 6.41M16.63 6.41L19.75 1M13.5 1L16.63 1M13.5 1L15.06 3.71M15.06 3.71L16.63 1M13.5 1L15.06 1M13.5 1L14.28 2.35M14.28 2.35L15.06 1M13.5 1L14.28 1M13.5 1L13.89 1.68M13.89 1.68L14.28 1M14.28 1L15.06 1M14.28 1L14.67 1.68M14.67 1.68L15.06 1M13.89 1.68L14.67 1.68M13.89 1.68L14.28 2.35M14.28 2.35L14.67 1.68M15.06 1L16.63 1M15.06 1L15.84 2.35M15.84 2.35L16.63 1M15.06 1L15.84 1M15.06 1L15.45 1.68M15.45 1.68L15.84 1M15.84 1L16.63 1M15.84 1L16.23 1.68M16.23 1.68L16.63 1M15.45 1.68L16.23 1.68M15.45 1.68L15.84 2.35M15.84 2.35L16.23 1.68M14.28 2.35L15.84 2.35M14.28 2.35L15.06 3.71M15.06 3.71L15.84 2.35M14.28 2.35L15.06 2.35M14.28 2.35L14.67 3.03M14.67 3.03L15.06 2.35M15.06 2.35L15.84 2.35M15.06 2.35L15.45 3.03M15.45 3.03L15.84 2.35M14.67 3.03L15.45 3.03M14.67 3.03L15.06 3.71M15.06 3.71L15.45 3.03M16.63 1L19.75 1M16.63 1L18.19 3.71M18.19 3.71L19.75 1M16.63 1L18.19 1M16.63 1L17.41 2.35M17.41 2.35L18.19 1M16.63 1L17.41 1M16.63 1L17.02 1.68M17.02 1.68L17.41 1M17.41 1L18.19 1M17.41 1L17.8 1.68M17.8 1.68L18.19 1M17.02 1.68L17.8 1.68M17.02 1.68L17.41 2.35M17.41 2.35L17.8 1.68M18.19 1L19.75 1M18.19 1L18.97 2.35M18.97 2.35L19.75 1M18.19 1L18.97 1M18.19 1L18.58 1.68M18.58 1.68L18.97 1M18.97 1L19.75 1M18.97 1L19.36 1.68M19.36 1.68L19.75 1M18.58 1.68L19.36 1.68M18.58 1.68L18.97 2.35M18.97 2.35L19.36 1.68M17.41 2.35L18.97 2.35M17.41 2.35L18.19 3.71M18.19 3.71L18.97 2.35M17.41 2.35L18.19 2.35M17.41 2.35L17.8 3.03M17.8 3.03L18.19 2.35M18.19 2.35L18.97 2.35M18.19 2.35L18.58 3.03M18.58 3.03L18.97 2.35M17.8 3.03L18.58 3.03M17.8 3.03L18.19 3.71M18.19 3.71L18.58 3.03M15.06 3.71L18.19 3.71M15.06 3.71L16.63 6.41M16.63 6.41L18.19 3.71M15.06 3.71L16.63 3.71M15.06 3.71L15.84 5.06M15.84 5.06L16.63 3.71M15.06 3.71L15.84 3.71M15.06 3.71L15.45 4.38M15.45 4.38L15.84 3.71M15.84 3.71L16.63 3.71M15.84 3.71L16.23 4.38M16.23 4.38L16.63 3.71M15.45 4.38L16.23 4.38M15.45 4.38L15.84 5.06M15.84 5.06L16.23 4.38M16.63 3.71L18.19 3.71M16.63 3.71L17.41 5.06M17.41 5.06L18.19 3.71M16.63 3.71L17.41 3.71M16.63 3.71L17.02 4.38M17.02 4.38L17.41 3.71M17.41 3.71L18.19 3.71M17.41 3.71L17.8 4.38M17.8 4.38L18.19 3.71M17.02 4.38L17.8 4.38M17.02 4.38L17.41 5.06M17.41 5.06L17.8 4.38M15.84 5.06L17.41 5.06M15.84 5.06L16.63 6.41M16.63 6.41L17.41 5.06M15.84 5.06L16.63 5.06M15.84 5.06L16.23 5.74M16.23 5.74L16.63 5.06M16.63 5.06L17.41 5.06M16.63 5.06L17.02 5.74M17.02 5.74L17.41 5.06M16.23 5.74L17.02 5.74M16.23 5.74L16.63 6.41M16.63 6.41L17.02 5.74M19.75 1L26 1M19.75 1L22.88 6.41M22.88 6.41L26 1M19.75 1L22.88 1M19.75 1L21.31 3.71M21.31 3.71L22.88 1M19.75 1L21.31 1M19.75 1L20.53 2.35M20.53 2.35L21.31 1M19.75 1L20.53 1M19.75 1L20.14 1.68M20.14 1.68L20.53 1M20.53 1L21.31 1M20.53 1L20.92 1.68M20.92 1.68L21.31 1M20.14 1.68L20.92 1.68M20.14 1.68L20.53 2.35M20.53 2.35L20.92 1.68M21.31 1L22.88 1M21.31 1L22.09 2.35M22.09 2.35L22.88 1M21.31 1L22.09 1M21.31 1L21.7 1.68M21.7 1.68L22.09 1M22.09 1L22.88 1M22.09 1L22.48 1.68M22.48 1.68L22.88 1M21.7 1.68L22.48 1.68M21.7 1.68L22.09 2.35M22.09 2.35L22.48 1.68M20.53 2.35L22.09 2.35M20.53 2.35L21.31 3.71M21.31 3.71L22.09 2.35M20.53 2.35L21.31 2.35M20.53 2.35L20.92 3.03M20.92 3.03L21.31 2.35M21.31 2.35L22.09 2.35M21.31 2.35L21.7 3.03M21.7 3.03L22.09 2.35M20.92 3.03L21.7 3.03M20.92 3.03L21.31 3.71M21.31 3.71L21.7 3.03M22.88 1L26 1M22.88 1L24.44 3.71M24.44 3.71L26 1M22.88 1L24.44 1M22.88 1L23.66 2.35M23.66 2.35L24.44 1M22.88 1L23.66 1M22.88 1L23.27 1.68M23.27 1.68L23.66 1M23.66 1L24.44 1M23.66 1L24.05 1.68M24.05 1.68L24.44 1M23.27 1.68L24.05 1.68M23.27 1.68L23.66 2.35M23.66 2.35L24.05 1.68M24.44 1L26 1M24.44 1L25.22 2.35M25.22 2.35L26 1M24.44 1L25.22 1M24.44 1L24.83 1.68M24.83 1.68L25.22 1M25.22 1L26 1M25.22 1L25.61 1.68M25.61 1.68L26 1M24.83 1.68L25.61 1.68M24.83 1.68L25.22 2.35M25.22 2.35L25.61 1.68M23.66 2.35L25.22 2.35M23.66 2.35L24.44 3.71M24.44 3.71L25.22 2.35M23.66 2.35L24.44 2.35M23.66 2.35L24.05 3.03M24.05 3.03L24.44 2.35M24.44 2.35L25.22 2.35M24.44 2.35L24.83 3.03M24.83 3.03L25.22 2.35M24.05 3.03L24.83 3.03M24.05 3.03L24.44 3.71M24.44 3.71L24.83 3.03M21.31 3.71L24.44 3.71M21.31 3.71L22.88 6.41M22.88 6.41L24.44 3.71M21.31 3.71L22.88 3.71M21.31 3.71L22.09 5.06M22.09 5.06L22.88 3.71M21.31 3.71L22.09 3.71M21.31 3.71L21.7 4.38M21.7 4.38L22.09 3.71M22.09 3.71L22.88 3.71M22.09 3.71L22.48 4.38M22.48 4.38L22.88 3.71M21.7 4.38L22.48 4.38M21.7 4.38L22.09 5.06M22.09 5.06L22.48 4.38M22.88 3.71L24.44 3.71M22.88 3.71L23.66 5.06M23.66 5.06L24.44 3.71M22.88 3.71L23.66 3.71M22.88 3.71L23.27 4.38M23.27 4.38L23.66 3.71M23.66 3.71L24.44 3.71M23.66 3.71L24.05 4.38M24.05 4.38L24.44 3.71M23.27 4.38L24.05 4.38M23.27 4.38L23.66 5.06M23.66 5.06L24.05 4.38M22.09 5.06L23.66 5.06M22.09 5.06L22.88 6.41M22.88 6.41L23.66 5.06M22.09 5.06L22.88 5.06M22.09 5.06L22.48 5.74M22.48 5.74L22.88 5.06M22.88 5.06L23.66 5.06M22.88 5.06L23.27 5.74M23.27 5.74L23.66 5.06M22.48 5.74L23.27 5.74M22.48 5.74L22.88 6.41M22.88 6.41L23.27 5.74M16.63 6.41L22.88 6.41M16.63 6.41L19.75 11.83M19.75 11.83L22.88 6.41M16.63 6.41L19.75 6.41M16.63 6.41L18.19 9.12M18.19 9.12L19.75 6.41M16.63 6.41L18.19 6.41M16.63 6.41L17.41 7.77M17.41 7.77L18.19 6.41M16.63 6.41L17.41 6.41M16.63 6.41L17.02 7.09M17.02 7.09L17.41 6.41M17.41 6.41L18.19 6.41M17.41 6.41L17.8 7.09M17.8 7.09L18.19 6.41M17.02 7.09L17.8 7.09M17.02 7.09L17.41 7.77M17.41 7.77L17.8 7.09M18.19 6.41L19.75 6.41M18.19 6.41L18.97 7.77M18.97 7.77L19.75 6.41M18.19 6.41L18.97 6.41M18.19 6.41L18.58 7.09M18.58 7.09L18.97 6.41M18.97 6.41L19.75 6.41M18.97 6.41L19.36 7.09M19.36 7.09L19.75 6.41M18.58 7.09L19.36 7.09M18.58 7.09L18.97 7.77M18.97 7.77L19.36 7.09M17.41 7.77L18.97 7.77M17.41 7.77L18.19 9.12M18.19 9.12L18.97 7.77M17.41 7.77L18.19 7.77M17.41 7.77L17.8 8.44M17.8 8.44L18.19 7.77M18.19 7.77L18.97 7.77M18.19 7.77L18.58 8.44M18.58 8.44L18.97 7.77M17.8 8.44L18.58 8.44M17.8 8.44L18.19 9.12M18.19 9.12L18.58 8.44M19.75 6.41L22.88 6.41M19.75 6.41L21.31 9.12M21.31 9.12L22.88 6.41M19.75 6.41L21.31 6.41M19.75 6.41L20.53 7.77M20.53 7.77L21.31 6.41M19.75 6.41L20.53 6.41M19.75 6.41L20.14 7.09M20.14 7.09L20.53 6.41M20.53 6.41L21.31 6.41M20.53 6.41L20.92 7.09M20.92 7.09L21.31 6.41M20.14 7.09L20.92 7.09M20.14 7.09L20.53 7.77M20.53 7.77L20.92 7.09M21.31 6.41L22.88 6.41M21.31 6.41L22.09 7.77M22.09 7.77L22.88 6.41M21.31 6.41L22.09 6.41M21.31 6.41L21.7 7.09M21.7 7.09L22.09 6.41M22.09 6.41L22.88 6.41M22.09 6.41L22.48 7.09M22.48 7.09L22.88 6.41M21.7 7.09L22.48 7.09M21.7 7.09L22.09 7.77M22.09 7.77L22.48 7.09M20.53 7.77L22.09 7.77M20.53 7.77L21.31 9.12M21.31 9.12L22.09 7.77M20.53 7.77L21.31 7.77M20.53 7.77L20.92 8.44M20.92 8.44L21.31 7.77M21.31 7.77L22.09 7.77M21.31 7.77L21.7 8.44M21.7 8.44L22.09 7.77M20.92 8.44L21.7 8.44M20.92 8.44L21.31 9.12M21.31 9.12L21.7 8.44M18.19 9.12L21.31 9.12M18.19 9.12L19.75 11.83M19.75 11.83L21.31 9.12M18.19 9.12L19.75 9.12M18.19 9.12L18.97 10.47M18.97 10.47L19.75 9.12M18.19 9.12L18.97 9.12M18.19 9.12L18.58 9.8M18.58 9.8L18.97 9.12M18.97 9.12L19.75 9.12M18.97 9.12L19.36 9.8M19.36 9.8L19.75 9.12M18.58 9.8L19.36 9.8M18.58 9.8L18.97 10.47M18.97 10.47L19.36 9.8M19.75 9.12L21.31 9.12M19.75 9.12L20.53 10.47M20.53 10.47L21.31 9.12M19.75 9.12L20.53 9.12M19.75 9.12L20.14 9.8M20.14 9.8L20.53 9.12M20.53 9.12L21.31 9.12M20.53 9.12L20.92 9.8M20.92 9.8L21.31 9.12M20.14 9.8L20.92 9.8M20.14 9.8L20.53 10.47M20.53 10.47L20.92 9.8M18.97 10.47L20.53 10.47M18.97 10.47L19.75 11.83M19.75 11.83L20.53 10.47M18.97 10.47L19.75 10.47M18.97 10.47L19.36 11.15M19.36 11.15L19.75 10.47M19.75 10.47L20.53 10.47M19.75 10.47L20.14 11.15M20.14 11.15L20.53 10.47M19.36 11.15L20.14 11.15M19.36 11.15L19.75 11.83M19.75 11.83L20.14 11.15M7.25 11.83L19.75 11.83M7.25 11.83L13.5 22.65M13.5 22.65L19.75 11.83M7.25 11.83L13.5 11.83M7.25 11.83L10.38 17.24M10.38 17.24L13.5 11.83M7.25 11.83L10.38 11.83M7.25 11.83L8.81 14.53M8.81 14.53L10.38 11.83M7.25 11.83L8.81 11.83M7.25 11.83L8.03 13.18M8.03 13.18L8.81 11.83M7.25 11.83L8.03 11.83M7.25 11.83L7.64 12.5M7.64 12.5L8.03 11.83M8.03 11.83L8.81 11.83M8.03 11.83L8.42 12.5M8.42 12.5L8.81 11.83M7.64 12.5L8.42 12.5M7.64 12.5L8.03 13.18M8.03 13.18L8.42 12.5M8.81 11.83L10.38 11.83M8.81 11.83L9.59 13.18M9.59 13.18L10.38 11.83M8.81 11.83L9.59 11.83M8.81 11.83L9.2 12.5M9.2 12.5L9.59 11.83M9.59 11.83L10.38 11.83M9.59 11.83L9.98 12.5M9.98 12.5L10.38 11.83M9.2 12.5L9.98 12.5M9.2 12.5L9.59 13.18M9.59 13.18L9.98 12.5M8.03 13.18L9.59 13.18M8.03 13.18L8.81 14.53M8.81 14.53L9.59 13.18M8.03 13.18L8.81 13.18M8.03 13.18L8.42 13.86M8.42 13.86L8.81 13.18M8.81 13.18L9.59 13.18M8.81 13.18L9.2 13.86M9.2 13.86L9.59 13.18M8.42 13.86L9.2 13.86M8.42 13.86L8.81 14.53M8.81 14.53L9.2 13.86M10.38 11.83L13.5 11.83M10.38 11.83L11.94 14.53M11.94 14.53L13.5 11.83M10.38 11.83L11.94 11.83M10.38 11.83L11.16 13.18M11.16 13.18L11.94 11.83M10.38 11.83L11.16 11.83M10.38 11.83L10.77 12.5M10.77 12.5L11.16 11.83M11.16 11.83L11.94 11.83M11.16 11.83L11.55 12.5M11.55 12.5L11.94 11.83M10.77 12.5L11.55 12.5M10.77 12.5L11.16 13.18M11.16 13.18L11.55 12.5M11.94 11.83L13.5 11.83M11.94 11.83L12.72 13.18M12.72 13.18L13.5 11.83M11.94 11.83L12.72 11.83M11.94 11.83L12.33 12.5M12.33 12.5L12.72 11.83M12.72 11.83L13.5 11.83M12.72 11.83L13.11 12.5M13.11 12.5L13.5 11.83M12.33 12.5L13.11 12.5M12.33 12.5L12.72 13.18M12.72 13.18L13.11 12.5M11.16 13.18L12.72 13.18M11.16 13.18L11.94 14.53M11.94 14.53L12.72 13.18M11.16 13.18L11.94 13.18M11.16 13.18L11.55 13.86M11.55 13.86L11.94 13.18M11.94 13.18L12.72 13.18M11.94 13.18L12.33 13.86M12.33 13.86L12.72 13.18M11.55 13.86L12.33 13.86M11.55 13.86L11.94 14.53M11.94 14.53L12.33 13.86M8.81 14.53L11.94 14.53M8.81 14.53L10.38 17.24M10.38 17.24L11.94 14.53M8.81 14.53L10.38 14.53M8.81 14.53L9.59 15.88M9.59 15.88L10.38 14.53M8.81 14.53L9.59 14.53M8.81 14.53L9.2 15.21M9.2 15.21L9.59 14.53M9.59 14.53L10.38 14.53M9.59 14.53L9.98 15.21M9.98 15.21L10.38 14.53M9.2 15.21L9.98 15.21M9.2 15.21L9.59 15.88M9.59 15.88L9.98 15.21M10.38 14.53L11.94 14.53M10.38 14.53L11.16 15.88M11.16 15.88L11.94 14.53M10.38 14.53L11.16 14.53M10.38 14.53L10.77 15.21M10.77 15.21L11.16 14.53M11.16 14.53L11.94 14.53M11.16 14.53L11.55 15.21M11.55 15.21L11.94 14.53M10.77 15.21L11.55 15.21M10.77 15.21L11.16 15.88M11.16 15.88L11.55 15.21M9.59 15.88L11.16 15.88M9.59 15.88L10.38 17.24M10.38 17.24L11.16 15.88M9.59 15.88L10.38 15.88M9.59 15.88L9.98 16.56M9.98 16.56L10.38 15.88M10.38 15.88L11.16 15.88M10.38 15.88L10.77 16.56M10.77 16.56L11.16 15.88M9.98 16.56L10.77 16.56M9.98 16.56L10.38 17.24M10.38 17.24L10.77 16.56M13.5 11.83L19.75 11.83M13.5 11.83L16.63 17.24M16.63 17.24L19.75 11.83M13.5 11.83L16.63 11.83M13.5 11.83L15.06 14.53M15.06 14.53L16.63 11.83M13.5 11.83L15.06 11.83M13.5 11.83L14.28 13.18M14.28 13.18L15.06 11.83M13.5 11.83L14.28 11.83M13.5 11.83L13.89 12.5M13.89 12.5L14.28 11.83M14.28 11.83L15.06 11.83M14.28 11.83L14.67 12.5M14.67 12.5L15.06 11.83M13.89 12.5L14.67 12.5M13.89 12.5L14.28 13.18M14.28 13.18L14.67 12.5M15.06 11.83L16.63 11.83M15.06 11.83L15.84 13.18M15.84 13.18L16.63 11.83M15.06 11.83L15.84 11.83M15.06 11.83L15.45 12.5M15.45 12.5L15.84 11.83M15.84 11.83L16.63 11.83M15.84 11.83L16.23 12.5M16.23 12.5L16.63 11.83M15.45 12.5L16.23 12.5M15.45 12.5L15.84 13.18M15.84 13.18L16.23 12.5M14.28 13.18L15.84 13.18M14.28 13.18L15.06 14.53M15.06 14.53L15.84 13.18M14.28 13.18L15.06 13.18M14.28 13.18L14.67 13.86M14.67 13.86L15.06 13.18M15.06 13.18L15.84 13.18M15.06 13.18L15.45 13.86M15.45 13.86L15.84 13.18M14.67 13.86L15.45 13.86M14.67 13.86L15.06 14.53M15.06 14.53L15.45 13.86M16.63 11.83L19.75 11.83M16.63 11.83L18.19 14.53M18.19 14.53L19.75 11.83M16.63 11.83L18.19 11.83M16.63 11.83L17.41 13.18M17.41 13.18L18.19 11.83M16.63 11.83L17.41 11.83M16.63 11.83L17.02 12.5M17.02 12.5L17.41 11.83M17.41 11.83L18.19 11.83M17.41 11.83L17.8 12.5M17.8 12.5L18.19 11.83M17.02 12.5L17.8 12.5M17.02 12.5L17.41 13.18M17.41 13.18L17.8 12.5M18.19 11.83L19.75 11.83M18.19 11.83L18.97 13.18M18.97 13.18L19.75 11.83M18.19 11.83L18.97 11.83M18.19 11.83L18.58 12.5M18.58 12.5L18.97 11.83M18.97 11.83L19.75 11.83M18.97 11.83L19.36 12.5M19.36 12.5L19.75 11.83M18.58 12.5L19.36 12.5M18.58 12.5L18.97 13.18M18.97 13.18L19.36 12.5M17.41 13.18L18.97 13.18M17.41 13.18L18.19 14.53M18.19 14.53L18.97 13.18M17.41 13.18L18.19 13.18M17.41 13.18L17.8 13.86M17.8 13.86L18.19 13.18M18.19 13.18L18.97 13.18M18.19 13.18L18.58 13.86M18.58 13.86L18.97 13.18M17.8 13.86L18.58 13.86M17.8 13.86L18.19 14.53M18.19 14.53L18.58 13.86M15.06 14.53L18.19 14.53M15.06 14.53L16.63 17.24M16.63 17.24L18.19 14.53M15.06 14.53L16.63 14.53M15.06 14.53L15.84 15.88M15.84 15.88L16.63 14.53M15.06 14.53L15.84 14.53M15.06 14.53L15.45 15.21M15.45 15.21L15.84 14.53M15.84 14.53L16.63 14.53M15.84 14.53L16.23 15.21M16.23 15.21L16.63 14.53M15.45 15.21L16.23 15.21M15.45 15.21L15.84 15.88M15.84 15.88L16.23 15.21M16.63 14.53L18.19 14.53M16.63 14.53L17.41 15.88M17.41 15.88L18.19 14.53M16.63 14.53L17.41 14.53M16.63 14.53L17.02 15.21M17.02 15.21L17.41 14.53M17.41 14.53L18.19 14.53M17.41 14.53L17.8 15.21M17.8 15.21L18.19 14.53M17.02 15.21L17.8 15.21M17.02 15.21L17.41 15.88M17.41 15.88L17.8 15.21M15.84 15.88L17.41 15.88M15.84 15.88L16.63 17.24M16.63 17.24L17.41 15.88M15.84 15.88L16.63 15.88M15.84 15.88L16.23 16.56M16.23 16.56L16.63 15.88M16.63 15.88L17.41 15.88M16.63 15.88L17.02 16.56M17.02 16.56L17.41 15.88M16.23 16.56L17.02 16.56M16.23 16.56L16.63 17.24M16.63 17.24L17.02 16.56M10.38 17.24L16.63 17.24M10.38 17.24L13.5 22.65M13.5 22.65L16.63 17.24M10.38 17.24L13.5 17.24M10.38 17.24L11.94 19.94M11.94 19.94L13.5 17.24M10.38 17.24L11.94 17.24M10.38 17.24L11.16 18.59M11.16 18.59L11.94 17.24M10.38 17.24L11.16 17.24M10.38 17.24L10.77 17.91M10.77 17.91L11.16 17.24M11.16 17.24L11.94 17.24M11.16 17.24L11.55 17.91M11.55 17.91L11.94 17.24M10.77 17.91L11.55 17.91M10.77 17.91L11.16 18.59M11.16 18.59L11.55 17.91M11.94 17.24L13.5 17.24M11.94 17.24L12.72 18.59M12.72 18.59L13.5 17.24M11.94 17.24L12.72 17.24M11.94 17.24L12.33 17.91M12.33 17.91L12.72 17.24M12.72 17.24L13.5 17.24M12.72 17.24L13.11 17.91M13.11 17.91L13.5 17.24M12.33 17.91L13.11 17.91M12.33 17.91L12.72 18.59M12.72 18.59L13.11 17.91M11.16 18.59L12.72 18.59M11.16 18.59L11.94 19.94M11.94 19.94L12.72 18.59M11.16 18.59L11.94 18.59M11.16 18.59L11.55 19.27M11.55 19.27L11.94 18.59M11.94 18.59L12.72 18.59M11.94 18.59L12.33 19.27M12.33 19.27L12.72 18.59M11.55 19.27L12.33 19.27M11.55 19.27L11.94 19.94M11.94 19.94L12.33 19.27M13.5 17.24L16.63 17.24M13.5 17.24L15.06 19.94M15.06 19.94L16.63 17.24M13.5 17.24L15.06 17.24M13.5 17.24L14.28 18.59M14.28 18.59L15.06 17.24M13.5 17.24L14.28 17.24M13.5 17.24L13.89 17.91M13.89 17.91L14.28 17.24M14.28 17.24L15.06 17.24M14.28 17.24L14.67 17.91M14.67 17.91L15.06 17.24M13.89 17.91L14.67 17.91M13.89 17.91L14.28 18.59M14.28 18.59L14.67 17.91M15.06 17.24L16.63 17.24M15.06 17.24L15.84 18.59M15.84 18.59L16.63 17.24M15.06 17.24L15.84 17.24M15.06 17.24L15.45 17.91M15.45 17.91L15.84 17.24M15.84 17.24L16.63 17.24M15.84 17.24L16.23 17.91M16.23 17.91L16.63 17.24M15.45 17.91L16.23 17.91M15.45 17.91L15.84 18.59M15.84 18.59L16.23 17.91M14.28 18.59L15.84 18.59M14.28 18.59L15.06 19.94M15.06 19.94L15.84 18.59M14.28 18.59L15.06 18.59M14.28 18.59L14.67 19.27M14.67 19.27L15.06 18.59M15.06 18.59L15.84 18.59M15.06 18.59L15.45 19.27M15.45 19.27L15.84 18.59M14.67 19.27L15.45 19.27M14.67 19.27L15.06 19.94M15.06 19.94L15.45 19.27M11.94 19.94L15.06 19.94M11.94 19.94L13.5 22.65M13.5 22.65L15.06 19.94M11.94 19.94L13.5 19.94M11.94 19.94L12.72 21.3M12.72 21.3L13.5 19.94M11.94 19.94L12.72 19.94M11.94 19.94L12.33 20.62M12.33 20.62L12.72 19.94M12.72 19.94L13.5 19.94M12.72 19.94L13.11 20.62M13.11 20.62L13.5 19.94M12.33 20.62L13.11 20.62M12.33 20.62L12.72 21.3M12.72 21.3L13.11 20.62M13.5 19.94L15.06 19.94M13.5 19.94L14.28 21.3M14.28 21.3L15.06 19.94M13.5 19.94L14.28 19.94M13.5 19.94L13.89 20.62M13.89 20.62L14.28 19.94M14.28 19.94L15.06 19.94M14.28 19.94L14.67 20.62M14.67 20.62L15.06 19.94M13.89 20.62L14.67 20.62M13.89 20.62L14.28 21.3M14.28 21.3L14.67 20.62M12.72 21.3L14.28 21.3M12.72 21.3L13.5 22.65M13.5 22.65L14.28 21.3M12.72 21.3L13.5 21.3M12.72 21.3L13.11 21.97M13.11 21.97L13.5 21.3M13.5 21.3L14.28 21.3M13.5 21.3L13.89 21.97M13.89 21.97L14.28 21.3M13.11 21.97L13.89 21.97M13.11 21.97L13.5 22.65M13.5 22.65L13.89 21.97M26 1L51 1M26 1L38.5 22.65M38.5 22.65L51 1M26 1L38.5 1M26 1L32.25 11.83M32.25 11.83L38.5 1M26 1L32.25 1M26 1L29.13 6.41M29.13 6.41L32.25 1M26 1L29.13 1M26 1L27.56 3.71M27.56 3.71L29.13 1M26 1L27.56 1M26 1L26.78 2.35M26.78 2.35L27.56 1M26 1L26.78 1M26 1L26.39 1.68M26.39 1.68L26.78 1M26.78 1L27.56 1M26.78 1L27.17 1.68M27.17 1.68L27.56 1M26.39 1.68L27.17 1.68M26.39 1.68L26.78 2.35M26.78 2.35L27.17 1.68M27.56 1L29.13 1M27.56 1L28.34 2.35M28.34 2.35L29.13 1M27.56 1L28.34 1M27.56 1L27.95 1.68M27.95 1.68L28.34 1M28.34 1L29.13 1M28.34 1L28.73 1.68M28.73 1.68L29.13 1M27.95 1.68L28.73 1.68M27.95 1.68L28.34 2.35M28.34 2.35L28.73 1.68M26.78 2.35L28.34 2.35M26.78 2.35L27.56 3.71M27.56 3.71L28.34 2.35M26.78 2.35L27.56 2.35M26.78 2.35L27.17 3.03M27.17 3.03L27.56 2.35M27.56 2.35L28.34 2.35M27.56 2.35L27.95 3.03M27.95 3.03L28.34 2.35M27.17 3.03L27.95 3.03M27.17 3.03L27.56 3.71M27.56 3.71L27.95 3.03M29.13 1L32.25 1M29.13 1L30.69 3.71M30.69 3.71L32.25 1M29.13 1L30.69 1M29.13 1L29.91 2.35M29.91 2.35L30.69 1M29.13 1L29.91 1M29.13 1L29.52 1.68M29.52 1.68L29.91 1M29.91 1L30.69 1M29.91 1L30.3 1.68M30.3 1.68L30.69 1M29.52 1.68L30.3 1.68M29.52 1.68L29.91 2.35M29.91 2.35L30.3 1.68M30.69 1L32.25 1M30.69 1L31.47 2.35M31.47 2.35L32.25 1M30.69 1L31.47 1M30.69 1L31.08 1.68M31.08 1.68L31.47 1M31.47 1L32.25 1M31.47 1L31.86 1.68M31.86 1.68L32.25 1M31.08 1.68L31.86 1.68M31.08 1.68L31.47 2.35M31.47 2.35L31.86 1.68M29.91 2.35L31.47 2.35M29.91 2.35L30.69 3.71M30.69 3.71L31.47 2.35M29.91 2.35L30.69 2.35M29.91 2.35L30.3 3.03M30.3 3.03L30.69 2.35M30.69 2.35L31.47 2.35M30.69 2.35L31.08 3.03M31.08 3.03L31.47 2.35M30.3 3.03L31.08 3.03M30.3 3.03L30.69 3.71M30.69 3.71L31.08 3.03M27.56 3.71L30.69 3.71M27.56 3.71L29.13 6.41M29.13 6.41L30.69 3.71M27.56 3.71L29.13 3.71M27.56 3.71L28.34 5.06M28.34 5.06L29.13 3.71M27.56 3.71L28.34 3.71M27.56 3.71L27.95 4.38M27.95 4.38L28.34 3.71M28.34 3.71L29.13 3.71M28.34 3.71L28.73 4.38M28.73 4.38L29.13 3.71M27.95 4.38L28.73 4.38M27.95 4.38L28.34 5.06M28.34 5.06L28.73 4.38M29.13 3.71L30.69 3.71M29.13 3.71L29.91 5.06M29.91 5.06L30.69 3.71M29.13 3.71L29.91 3.71M29.13 3.71L29.52 4.38M29.52 4.38L29.91 3.71M29.91 3.71L30.69 3.71M29.91 3.71L30.3 4.38M30.3 4.38L30.69 3.71M29.52 4.38L30.3 4.38M29.52 4.38L29.91 5.06M29.91 5.06L30.3 4.38M28.34 5.06L29.91 5.06M28.34 5.06L29.13 6.41M29.13 6.41L29.91 5.06M28.34 5.06L29.13 5.06M28.34 5.06L28.73 5.74M28.73 5.74L29.13 5.06M29.13 5.06L29.91 5.06M29.13 5.06L29.52 5.74M29.52 5.74L29.91 5.06M28.73 5.74L29.52 5.74M28.73 5.74L29.13 6.41M29.13 6.41L29.52 5.74M32.25 1L38.5 1M32.25 1L35.38 6.41M35.38 6.41L38.5 1M32.25 1L35.38 1M32.25 1L33.81 3.71M33.81 3.71L35.38 1M32.25 1L33.81 1M32.25 1L33.03 2.35M33.03 2.35L33.81 1M32.25 1L33.03 1M32.25 1L32.64 1.68M32.64 1.68L33.03 1M33.03 1L33.81 1M33.03 1L33.42 1.68M33.42 1.68L33.81 1M32.64 1.68L33.42 1.68M32.64 1.68L33.03 2.35M33.03 2.35L33.42 1.68M33.81 1L35.38 1M33.81 1L34.59 2.35M34.59 2.35L35.38 1M33.81 1L34.59 1M33.81 1L34.2 1.68M34.2 1.68L34.59 1M34.59 1L35.38 1M34.59 1L34.98 1.68M34.98 1.68L35.38 1M34.2 1.68L34.98 1.68M34.2 1.68L34.59 2.35M34.59 2.35L34.98 1.68M33.03 2.35L34.59 2.35M33.03 2.35L33.81 3.71M33.81 3.71L34.59 2.35M33.03 2.35L33.81 2.35M33.03 2.35L33.42 3.03M33.42 3.03L33.81 2.35M33.81 2.35L34.59 2.35M33.81 2.35L34.2 3.03M34.2 3.03L34.59 2.35M33.42 3.03L34.2 3.03M33.42 3.03L33.81 3.71M33.81 3.71L34.2 3.03M35.38 1L38.5 1M35.38 1L36.94 3.71M36.94 3.71L38.5 1M35.38 1L36.94 1M35.38 1L36.16 2.35M36.16 2.35L36.94 1M35.38 1L36.16 1M35.38 1L35.77 1.68M35.77 1.68L36.16 1M36.16 1L36.94 1M36.16 1L36.55 1.68M36.55 1.68L36.94 1M35.77 1.68L36.55 1.68M35.77 1.68L36.16 2.35M36.16 2.35L36.55 1.68M36.94 1L38.5 1M36.94 1L37.72 2.35M37.72 2.35L38.5 1M36.94 1L37.72 1M36.94 1L37.33 1.68M37.33 1.68L37.72 1M37.72 1L38.5 1M37.72 1L38.11 1.68M38.11 1.68L38.5 1M37.33 1.68L38.11 1.68M37.33 1.68L37.72 2.35M37.72 2.35L38.11 1.68M36.16 2.35L37.72 2.35M36.16 2.35L36.94 3.71M36.94 3.71L37.72 2.35M36.16 2.35L36.94 2.35M36.16 2.35L36.55 3.03M36.55 3.03L36.94 2.35M36.94 2.35L37.72 2.35M36.94 2.35L37.33 3.03M37.33 3.03L37.72 2.35M36.55 3.03L37.33 3.03M36.55 3.03L36.94 3.71M36.94 3.71L37.33 3.03M33.81 3.71L36.94 3.71M33.81 3.71L35.38 6.41M35.38 6.41L36.94 3.71M33.81 3.71L35.38 3.71M33.81 3.71L34.59 5.06M34.59 5.06L35.38 3.71M33.81 3.71L34.59 3.71M33.81 3.71L34.2 4.38M34.2 4.38L34.59 3.71M34.59 3.71L35.38 3.71M34.59 3.71L34.98 4.38M34.98 4.38L35.38 3.71M34.2 4.38L34.98 4.38M34.2 4.38L34.59 5.06M34.59 5.06L34.98 4.38M35.38 3.71L36.94 3.71M35.38 3.71L36.16 5.06M36.16 5.06L36.94 3.71M35.38 3.71L36.16 3.71M35.38 3.71L35.77 4.38M35.77 4.38L36.16 3.71M36.16 3.71L36.94 3.71M36.16 3.71L36.55 4.38M36.55 4.38L36.94 3.71M35.77 4.38L36.55 4.38M35.77 4.38L36.16 5.06M36.16 5.06L36.55 4.38M34.59 5.06L36.16 5.06M34.59 5.06L35.38 6.41M35.38 6.41L36.16 5.06M34.59 5.06L35.38 5.06M34.59 5.06L34.98 5.74M34.98 5.74L35.38 5.06M35.38 5.06L36.16 5.06M35.38 5.06L35.77 5.74M35.77 5.74L36.16 5.06M34.98 5.74L35.77 5.74M34.98 5.74L35.38 6.41M35.38 6.41L35.77 5.74M29.13 6.41L35.38 6.41M29.13 6.41L32.25 11.83M32.25 11.83L35.38 6.41M29.13 6.41L32.25 6.41M29.13 6.41L30.69 9.12M30.69 9.12L32.25 6.41M29.13 6.41L30.69 6.41M29.13 6.41L29.91 7.77M29.91 7.77L30.69 6.41M29.13 6.41L29.91 6.41M29.13 6.41L29.52 7.09M29.52 7.09L29.91 6.41M29.91 6.41L30.69 6.41M29.91 6.41L30.3 7.09M30.3 7.09L30.69 6.41M29.52 7.09L30.3 7.09M29.52 7.09L29.91 7.77M29.91 7.77L30.3 7.09M30.69 6.41L32.25 6.41M30.69 6.41L31.47 7.77M31.47 7.77L32.25 6.41M30.69 6.41L31.47 6.41M30.69 6.41L31.08 7.09M31.08 7.09L31.47 6.41M31.47 6.41L32.25 6.41M31.47 6.41L31.86 7.09M31.86 7.09L32.25 6.41M31.08 7.09L31.86 7.09M31.08 7.09L31.47 7.77M31.47 7.77L31.86 7.09M29.91 7.77L31.47 7.77M29.91 7.77L30.69 9.12M30.69 9.12L31.47 7.77M29.91 7.77L30.69 7.77M29.91 7.77L30.3 8.44M30.3 8.44L30.69 7.77M30.69 7.77L31.47 7.77M30.69 7.77L31.08 8.44M31.08 8.44L31.47 7.77M30.3 8.44L31.08 8.44M30.3 8.44L30.69 9.12M30.69 9.12L31.08 8.44M32.25 6.41L35.38 6.41M32.25 6.41L33.81 9.12M33.81 9.12L35.38 6.41M32.25 6.41L33.81 6.41M32.25 6.41L33.03 7.77M33.03 7.77L33.81 6.41M32.25 6.41L33.03 6.41M32.25 6.41L32.64 7.09M32.64 7.09L33.03 6.41M33.03 6.41L33.81 6.41M33.03 6.41L33.42 7.09M33.42 7.09L33.81 6.41M32.64 7.09L33.42 7.09M32.64 7.09L33.03 7.77M33.03 7.77L33.42 7.09M33.81 6.41L35.38 6.41M33.81 6.41L34.59 7.77M34.59 7.77L35.38 6.41M33.81 6.41L34.59 6.41M33.81 6.41L34.2 7.09M34.2 7.09L34.59 6.41M34.59 6.41L35.38 6.41M34.59 6.41L34.98 7.09M34.98 7.09L35.38 6.41M34.2 7.09L34.98 7.09M34.2 7.09L34.59 7.77M34.59 7.77L34.98 7.09M33.03 7.77L34.59 7.77M33.03 7.77L33.81 9.12M33.81 9.12L34.59 7.77M33.03 7.77L33.81 7.77M33.03 7.77L33.42 8.44M33.42 8.44L33.81 7.77M33.81 7.77L34.59 7.77M33.81 7.77L34.2 8.44M34.2 8.44L34.59 7.77M33.42 8.44L34.2 8.44M33.42 8.44L33.81 9.12M33.81 9.12L34.2 8.44M30.69 9.12L33.81 9.12M30.69 9.12L32.25 11.83M32.25 11.83L33.81 9.12M30.69 9.12L32.25 9.12M30.69 9.12L31.47 10.47M31.47 10.47L32.25 9.12M30.69 9.12L31.47 9.12M30.69 9.12L31.08 9.8M31.08 9.8L31.47 9.12M31.47 9.12L32.25 9.12M31.47 9.12L31.86 9.8M31.86 9.8L32.25 9.12M31.08 9.8L31.86 9.8M31.08 9.8L31.47 10.47M31.47 10.47L31.86 9.8M32.25 9.12L33.81 9.12M32.25 9.12L33.03 10.47M33.03 10.47L33.81 9.12M32.25 9.12L33.03 9.12M32.25 9.12L32.64 9.8M32.64 9.8L33.03 9.12M33.03 9.12L33.81 9.12M33.03 9.12L33.42 9.8M33.42 9.8L33.81 9.12M32.64 9.8L33.42 9.8M32.64 9.8L33.03 10.47M33.03 10.47L33.42 9.8M31.47 10.47L33.03 10.47M31.47 10.47L32.25 11.83M32.25 11.83L33.03 10.47M31.47 10.47L32.25 10.47M31.47 10.47L31.86 11.15M31.86 11.15L32.25 10.47M32.25 10.47L33.03 10.47M32.25 10.47L32.64 11.15M32.64 11.15L33.03 10.47M31.86 11.15L32.64 11.15M31.86 11.15L32.25 11.83M32.25 11.83L32.64 11.15M38.5 1L51 1M38.5 1L44.75 11.83M44.75 11.83L51 1M38.5 1L44.75 1M38.5 1L41.63 6.41M41.63 6.41L44.75 1M38.5 1L41.63 1M38.5 1L40.06 3.71M40.06 3.71L41.63 1M38.5 1L40.06 1M38.5 1L39.28 2.35M39.28 2.35L40.06 1M38.5 1L39.28 1M38.5 1L38.89 1.68M38.89 1.68L39.28 1M39.28 1L40.06 1M39.28 1L39.67 1.68M39.67 1.68L40.06 1M38.89 1.68L39.67 1.68M38.89 1.68L39.28 2.35M39.28 2.35L39.67 1.68M40.06 1L41.63 1M40.06 1L40.84 2.35M40.84 2.35L41.63 1M40.06 1L40.84 1M40.06 1L40.45 1.68M40.45 1.68L40.84 1M40.84 1L41.63 1M40.84 1L41.23 1.68M41.23 1.68L41.63 1M40.45 1.68L41.23 1.68M40.45 1.68L40.84 2.35M40.84 2.35L41.23 1.68M39.28 2.35L40.84 2.35M39.28 2.35L40.06 3.71M40.06 3.71L40.84 2.35M39.28 2.35L40.06 2.35M39.28 2.35L39.67 3.03M39.67 3.03L40.06 2.35M40.06 2.35L40.84 2.35M40.06 2.35L40.45 3.03M40.45 3.03L40.84 2.35M39.67 3.03L40.45 3.03M39.67 3.03L40.06 3.71M40.06 3.71L40.45 3.03M41.63 1L44.75 1M41.63 1L43.19 3.71M43.19 3.71L44.75 1M41.63 1L43.19 1M41.63 1L42.41 2.35M42.41 2.35L43.19 1M41.63 1L42.41 1M41.63 1L42.02 1.68M42.02 1.68L42.41 1M42.41 1L43.19 1M42.41 1L42.8 1.68M42.8 1.68L43.19 1M42.02 1.68L42.8 1.68M42.02 1.68L42.41 2.35M42.41 2.35L42.8 1.68M43.19 1L44.75 1M43.19 1L43.97 2.35M43.97 2.35L44.75 1M43.19 1L43.97 1M43.19 1L43.58 1.68M43.58 1.68L43.97 1M43.97 1L44.75 1M43.97 1L44.36 1.68M44.36 1.68L44.75 1M43.58 1.68L44.36 1.68M43.58 1.68L43.97 2.35M43.97 2.35L44.36 1.68M42.41 2.35L43.97 2.35M42.41 2.35L43.19 3.71M43.19 3.71L43.97 2.35M42.41 2.35L43.19 2.35M42.41 2.35L42.8 3.03M42.8 3.03L43.19 2.35M43.19 2.35L43.97 2.35M43.19 2.35L43.58 3.03M43.58 3.03L43.97 2.35M42.8 3.03L43.58 3.03M42.8 3.03L43.19 3.71M43.19 3.71L43.58 3.03M40.06 3.71L43.19 3.71M40.06 3.71L41.63 6.41M41.63 6.41L43.19 3.71M40.06 3.71L41.63 3.71M40.06 3.71L40.84 5.06M40.84 5.06L41.63 3.71M40.06 3.71L40.84 3.71M40.06 3.71L40.45 4.38M40.45 4.38L40.84 3.71M40.84 3.71L41.63 3.71M40.84 3.71L41.23 4.38M41.23 4.38L41.63 3.71M40.45 4.38L41.23 4.38M40.45 4.38L40.84 5.06M40.84 5.06L41.23 4.38M41.63 3.71L43.19 3.71M41.63 3.71L42.41 5.06M42.41 5.06L43.19 3.71M41.63 3.71L42.41 3.71M41.63 3.71L42.02 4.38M42.02 4.38L42.41 3.71M42.41 3.71L43.19 3.71M42.41 3.71L42.8 4.38M42.8 4.38L43.19 3.71M42.02 4.38L42.8 4.38M42.02 4.38L42.41 5.06M42.41 5.06L42.8 4.38M40.84 5.06L42.41 5.06M40.84 5.06L41.63 6.41M41.63 6.41L42.41 5.06M40.84 5.06L41.63 5.06M40.84 5.06L41.23 5.74M41.23 5.74L41.63 5.06M41.63 5.06L42.41 5.06M41.63 5.06L42.02 5.74M42.02 5.74L42.41 5.06M41.23 5.74L42.02 5.74M41.23 5.74L41.63 6.41M41.63 6.41L42.02 5.74M44.75 1L51 1M44.75 1L47.88 6.41M47.88 6.41L51 1M44.75 1L47.88 1M44.75 1L46.31 3.71M46.31 3.71L47.88 1M44.75 1L46.31 1M44.75 1L45.53 2.35M45.53 2.35L46.31 1M44.75 1L45.53 1M44.75 1L45.14 1.68M45.14 1.68L45.53 1M45.53 1L46.31 1M45.53 1L45.92 1.68M45.92 1.68L46.31 1M45.14 1.68L45.92 1.68M45.14 1.68L45.53 2.35M45.53 2.35L45.92 1.68M46.31 1L47.88 1M46.31 1L47.09 2.35M47.09 2.35L47.88 1M46.31 1L47.09 1M46.31 1L46.7 1.68M46.7 1.68L47.09 1M47.09 1L47.88 1M47.09 1L47.48 1.68M47.48 1.68L47.88 1M46.7 1.68L47.48 1.68M46.7 1.68L47.09 2.35M47.09 2.35L47.48 1.68M45.53 2.35L47.09 2.35M45.53 2.35L46.31 3.71M46.31 3.71L47.09 2.35M45.53 2.35L46.31 2.35M45.53 2.35L45.92 3.03M45.92 3.03L46.31 2.35M46.31 2.35L47.09 2.35M46.31 2.35L46.7 3.03M46.7 3.03L47.09 2.35M45.92 3.03L46.7 3.03M45.92 3.03L46.31 3.71M46.31 3.71L46.7 3.03M47.88 1L51 1M47.88 1L49.44 3.71M49.44 3.71L51 1M47.88 1L49.44 1M47.88 1L48.66 2.35M48.66 2.35L49.44 1M47.88 1L48.66 1M47.88 1L48.27 1.68M48.27 1.68L48.66 1M48.66 1L49.44 1M48.66 1L49.05 1.68M49.05 1.68L49.44 1M48.27 1.68L49.05 1.68M48.27 1.68L48.66 2.35M48.66 2.35L49.05 1.68M49.44 1L51 1M49.44 1L50.22 2.35M50.22 2.35L51 1M49.44 1L50.22 1M49.44 1L49.83 1.68M49.83 1.68L50.22 1M50.22 1L51 1M50.22 1L50.61 1.68M50.61 1.68L51 1M49.83 1.68L50.61 1.68M49.83 1.68L50.22 2.35M50.22 2.35L50.61 1.68M48.66 2.35L50.22 2.35M48.66 2.35L49.44 3.71M49.44 3.71L50.22 2.35M48.66 2.35L49.44 2.35M48.66 2.35L49.05 3.03M49.05 3.03L49.44 2.35M49.44 2.35L50.22 2.35M49.44 2.35L49.83 3.03M49.83 3.03L50.22 2.35M49.05 3.03L49.83 3.03M49.05 3.03L49.44 3.71M49.44 3.71L49.83 3.03M46.31 3.71L49.44 3.71M46.31 3.71L47.88 6.41M47.88 6.41L49.44 3.71M46.31 3.71L47.88 3.71M46.31 3.71L47.09 5.06M47.09 5.06L47.88 3.71M46.31 3.71L47.09 3.71M46.31 3.71L46.7 4.38M46.7 4.38L47.09 3.71M47.09 3.71L47.88 3.71M47.09 3.71L47.48 4.38M47.48 4.38L47.88 3.71M46.7 4.38L47.48 4.38M46.7 4.38L47.09 5.06M47.09 5.06L47.48 4.38M47.88 3.71L49.44 3.71M47.88 3.71L48.66 5.06M48.66 5.06L49.44 3.71M47.88 3.71L48.66 3.71M47.88 3.71L48.27 4.38M48.27 4.38L48.66 3.71M48.66 3.71L49.44 3.71M48.66 3.71L49.05 4.38M49.05 4.38L49.44 3.71M48.27 4.38L49.05 4.38M48.27 4.38L48.66 5.06M48.66 5.06L49.05 4.38M47.09 5.06L48.66 5.06M47.09 5.06L47.88 6.41M47.88 6.41L48.66 5.06M47.09 5.06L47.88 5.06M47.09 5.06L47.48 5.74M47.48 5.74L47.88 5.06M47.88 5.06L48.66 5.06M47.88 5.06L48.27 5.74M48.27 5.74L48.66 5.06M47.48 5.74L48.27 5.74M47.48 5.74L47.88 6.41M47.88 6.41L48.27 5.74M41.63 6.41L47.88 6.41M41.63 6.41L44.75 11.83M44.75 11.83L47.88 6.41M41.63 6.41L44.75 6.41M41.63 6.41L43.19 9.12M43.19 9.12L44.75 6.41M41.63 6.41L43.19 6.41M41.63 6.41L42.41 7.77M42.41 7.77L43.19 6.41M41.63 6.41L42.41 6.41M41.63 6.41L42.02 7.09M42.02 7.09L42.41 6.41M42.41 6.41L43.19 6.41M42.41 6.41L42.8 7.09M42.8 7.09L43.19 6.41M42.02 7.09L42.8 7.09M42.02 7.09L42.41 7.77M42.41 7.77L42.8 7.09M43.19 6.41L44.75 6.41M43.19 6.41L43.97 7.77M43.97 7.77L44.75 6.41M43.19 6.41L43.97 6.41M43.19 6.41L43.58 7.09M43.58 7.09L43.97 6.41M43.97 6.41L44.75 6.41M43.97 6.41L44.36 7.09M44.36 7.09L44.75 6.41M43.58 7.09L44.36 7.09M43.58 7.09L43.97 7.77M43.97 7.77L44.36 7.09M42.41 7.77L43.97 7.77M42.41 7.77L43.19 9.12M43.19 9.12L43.97 7.77M42.41 7.77L43.19 7.77M42.41 7.77L42.8 8.44M42.8 8.44L43.19 7.77M43.19 7.77L43.97 7.77M43.19 7.77L43.58 8.44M43.58 8.44L43.97 7.77M42.8 8.44L43.58 8.44M42.8 8.44L43.19 9.12M43.19 9.12L43.58 8.44M44.75 6.41L47.88 6.41M44.75 6.41L46.31 9.12M46.31 9.12L47.88 6.41M44.75 6.41L46.31 6.41M44.75 6.41L45.53 7.77M45.53 7.77L46.31 6.41M44.75 6.41L45.53 6.41M44.75 6.41L45.14 7.09M45.14 7.09L45.53 6.41M45.53 6.41L46.31 6.41M45.53 6.41L45.92 7.09M45.92 7.09L46.31 6.41M45.14 7.09L45.92 7.09M45.14 7.09L45.53 7.77M45.53 7.77L45.92 7.09M46.31 6.41L47.88 6.41M46.31 6.41L47.09 7.77M47.09 7.77L47.88 6.41M46.31 6.41L47.09 6.41M46.31 6.41L46.7 7.09M46.7 7.09L47.09 6.41M47.09 6.41L47.88 6.41M47.09 6.41L47.48 7.09M47.48 7.09L47.88 6.41M46.7 7.09L47.48 7.09M46.7 7.09L47.09 7.77M47.09 7.77L47.48 7.09M45.53 7.77L47.09 7.77M45.53 7.77L46.31 9.12M46.31 9.12L47.09 7.77M45.53 7.77L46.31 7.77M45.53 7.77L45.92 8.44M45.92 8.44L46.31 7.77M46.31 7.77L47.09 7.77M46.31 7.77L46.7 8.44M46.7 8.44L47.09 7.77M45.92 8.44L46.7 8.44M45.92 8.44L46.31 9.12M46.31 9.12L46.7 8.44M43.19 9.12L46.31 9.12M43.19 9.12L44.75 11.83M44.75 11.83L46.31 9.12M43.19 9.12L44.75 9.12M43.19 9.12L43.97 10.47M43.97 10.47L44.75 9.12M43.19 9.12L43.97 9.12M43.19 9.12L43.58 9.8M43.58 9.8L43.97 9.12M43.97 9.12L44.75 9.12M43.97 9.12L44.36 9.8M44.36 9.8L44.75 9.12M43.58 9.8L44.36 9.8M43.58 9.8L43.97 10.47M43.97 10.47L44.36 9.8M44.75 9.12L46.31 9.12M44.75 9.12L45.53 10.47M45.53 10.47L46.31 9.12M44.75 9.12L45.53 9.12M44.75 9.12L45.14 9.8M45.14 9.8L45.53 9.12M45.53 9.12L46.31 9.12M45.53 9.12L45.92 9.8M45.92 9.8L46.31 9.12M45.14 9.8L45.92 9.8M45.14 9.8L45.53 10.47M45.53 10.47L45.92 9.8M43.97 10.47L45.53 10.47M43.97 10.47L44.75 11.83M44.75 11.83L45.53 10.47M43.97 10.47L44.75 10.47M43.97 10.47L44.36 11.15M44.36 11.15L44.75 10.47M44.75 10.47L45.53 10.47M44.75 10.47L45.14 11.15M45.14 11.15L45.53 10.47M44.36 11.15L45.14 11.15M44.36 11.15L44.75 11.83M44.75 11.83L45.14 11.15M32.25 11.83L44.75 11.83M32.25 11.83L38.5 22.65M38.5 22.65L44.75 11.83M32.25 11.83L38.5 11.83M32.25 11.83L35.38 17.24M35.38 17.24L38.5 11.83M32.25 11.83L35.38 11.83M32.25 11.83L33.81 14.53M33.81 14.53L35.38 11.83M32.25 11.83L33.81 11.83M32.25 11.83L33.03 13.18M33.03 13.18L33.81 11.83M32.25 11.83L33.03 11.83M32.25 11.83L32.64 12.5M32.64 12.5L33.03 11.83M33.03 11.83L33.81 11.83M33.03 11.83L33.42 12.5M33.42 12.5L33.81 11.83M32.64 12.5L33.42 12.5M32.64 12.5L33.03 13.18M33.03 13.18L33.42 12.5M33.81 11.83L35.38 11.83M33.81 11.83L34.59 13.18M34.59 13.18L35.38 11.83M33.81 11.83L34.59 11.83M33.81 11.83L34.2 12.5M34.2 12.5L34.59 11.83M34.59 11.83L35.38 11.83M34.59 11.83L34.98 12.5M34.98 12.5L35.38 11.83M34.2 12.5L34.98 12.5M34.2 12.5L34.59 13.18M34.59 13.18L34.98 12.5M33.03 13.18L34.59 13.18M33.03 13.18L33.81 14.53M33.81 14.53L34.59 13.18M33.03 13.18L33.81 13.18M33.03 13.18L33.42 13.86M33.42 13.86L33.81 13.18M33.81 13.18L34.59 13.18M33.81 13.18L34.2 13.86M34.2 13.86L34.59 13.18M33.42 13.86L34.2 13.86M33.42 13.86L33.81 14.53M33.81 14.53L34.2 13.86M35.38 11.83L38.5 11.83M35.38 11.83L36.94 14.53M36.94 14.53L38.5 11.83M35.38 11.83L36.94 11.83M35.38 11.83L36.16 13.18M36.16 13.18L36.94 11.83M35.38 11.83L36.16 11.83M35.38 11.83L35.77 12.5M35.77 12.5L36.16 11.83M36.16 11.83L36.94 11.83M36.16 11.83L36.55 12.5M36.55 12.5L36.94 11.83M35.77 12.5L36.55 12.5M35.77 12.5L36.16 13.18M36.16 13.18L36.55 12.5M36.94 11.83L38.5 11.83M36.94 11.83L37.72 13.18M37.72 13.18L38.5 11.83M36.94 11.83L37.72 11.83M36.94 11.83L37.33 12.5M37.33 12.5L37.72 11.83M37.72 11.83L38.5 11.83M37.72 11.83L38.11 12.5M38.11 12.5L38.5 11.83M37.33 12.5L38.11 12.5M37.33 12.5L37.72 13.18M37.72 13.18L38.11 12.5M36.16 13.18L37.72 13.18M36.16 13.18L36.94 14.53M36.94 14.53L37.72 13.18M36.16 13.18L36.94 13.18M36.16 13.18L36.55 13.86M36.55 13.86L36.94 13.18M36.94 13.18L37.72 13.18M36.94 13.18L37.33 13.86M37.33 13.86L37.72 13.18M36.55 13.86L37.33 13.86M36.55 13.86L36.94 14.53M36.94 14.53L37.33 13.86M33.81 14.53L36.94 14.53M33.81 14.53L35.38 17.24M35.38 17.24L36.94 14.53M33.81 14.53L35.38 14.53M33.81 14.53L34.59 15.88M34.59 15.88L35.38 14.53M33.81 14.53L34.59 14.53M33.81 14.53L34.2 15.21M34.2 15.21L34.59 14.53M34.59 14.53L35.38 14.53M34.59 14.53L34.98 15.21M34.98 15.21L35.38 14.53M34.2 15.21L34.98 15.21M34.2 15.21L34.59 15.88M34.59 15.88L34.98 15.21M35.38 14.53L36.94 14.53M35.38 14.53L36.16 15.88M36.16 15.88L36.94 14.53M35.38 14.53L36.16 14.53M35.38 14.53L35.77 15.21M35.77 15.21L36.16 14.53M36.16 14.53L36.94 14.53M36.16 14.53L36.55 15.21M36.55 15.21L36.94 14.53M35.77 15.21L36.55 15.21M35.77 15.21L36.16 15.88M36.16 15.88L36.55 15.21M34.59 15.88L36.16 15.88M34.59 15.88L35.38 17.24M35.38 17.24L36.16 15.88M34.59 15.88L35.38 15.88M34.59 15.88L34.98 16.56M34.98 16.56L35.38 15.88M35.38 15.88L36.16 15.88M35.38 15.88L35.77 16.56M35.77 16.56L36.16 15.88M34.98 16.56L35.77 16.56M34.98 16.56L35.38 17.24M35.38 17.24L35.77 16.56M38.5 11.83L44.75 11.83M38.5 11.83L41.63 17.24M41.63 17.24L44.75 11.83M38.5 11.83L41.63 11.83M38.5 11.83L40.06 14.53M40.06 14.53L41.63 11.83M38.5 11.83L40.06 11.83M38.5 11.83L39.28 13.18M39.28 13.18L40.06 11.83M38.5 11.83L39.28 11.83M38.5 11.83L38.89 12.5M38.89 12.5L39.28 11.83M39.28 11.83L40.06 11.83M39.28 11.83L39.67 12.5M39.67 12.5L40.06 11.83M38.89 12.5L39.67 12.5M38.89 12.5L39.28 13.18M39.28 13.18L39.67 12.5M40.06 11.83L41.63 11.83M40.06 11.83L40.84 13.18M40.84 13.18L41.63 11.83M40.06 11.83L40.84 11.83M40.06 11.83L40.45 12.5M40.45 12.5L40.84 11.83M40.84 11.83L41.63 11.83M40.84 11.83L41.23 12.5M41.23 12.5L41.63 11.83M40.45 12.5L41.23 12.5M40.45 12.5L40.84 13.18M40.84 13.18L41.23 12.5M39.28 13.18L40.84 13.18M39.28 13.18L40.06 14.53M40.06 14.53L40.84 13.18M39.28 13.18L40.06 13.18M39.28 13.18L39.67 13.86M39.67 13.86L40.06 13.18M40.06 13.18L40.84 13.18M40.06 13.18L40.45 13.86M40.45 13.86L40.84 13.18M39.67 13.86L40.45 13.86M39.67 13.86L40.06 14.53M40.06 14.53L40.45 13.86M41.63 11.83L44.75 11.83M41.63 11.83L43.19 14.53M43.19 14.53L44.75 11.83M41.63 11.83L43.19 11.83M41.63 11.83L42.41 13.18M42.41 13.18L43.19 11.83M41.63 11.83L42.41 11.83M41.63 11.83L42.02 12.5M42.02 12.5L42.41 11.83M42.41 11.83L43.19 11.83M42.41 11.83L42.8 12.5M42.8 12.5L43.19 11.83M42.02 12.5L42.8 12.5M42.02 12.5L42.41 13.18M42.41 13.18L42.8 12.5M43.19 11.83L44.75 11.83M43.19 11.83L43.97 13.18M43.97 13.18L44.75 11.83M43.19 11.83L43.97 11.83M43.19 11.83L43.58 12.5M43.58 12.5L43.97 11.83M43.97 11.83L44.75 11.83M43.97 11.83L44.36 12.5M44.36 12.5L44.75 11.83M43.58 12.5L44.36 12.5M43.58 12.5L43.97 13.18M43.97 13.18L44.36 12.5M42.41 13.18L43.97 13.18M42.41 13.18L43.19 14.53M43.19 14.53L43.97 13.18M42.41 13.18L43.19 13.18M42.41 13.18L42.8 13.86M42.8 13.86L43.19 13.18M43.19 13.18L43.97 13.18M43.19 13.18L43.58 13.86M43.58 13.86L43.97 13.18M42.8 13.86L43.58 13.86M42.8 13.86L43.19 14.53M43.19 14.53L43.58 13.86M40.06 14.53L43.19 14.53M40.06 14.53L41.63 17.24M41.63 17.24L43.19 14.53M40.06 14.53L41.63 14.53M40.06 14.53L40.84 15.88M40.84 15.88L41.63 14.53M40.06 14.53L40.84 14.53M40.06 14.53L40.45 15.21M40.45 15.21L40.84 14.53M40.84 14.53L41.63 14.53M40.84 14.53L41.23 15.21M41.23 15.21L41.63 14.53M40.45 15.21L41.23 15.21M40.45 15.21L40.84 15.88M40.84 15.88L41.23 15.21M41.63 14.53L43.19 14.53M41.63 14.53L42.41 15.88M42.41 15.88L43.19 14.53M41.63 14.53L42.41 14.53M41.63 14.53L42.02 15.21M42.02 15.21L42.41 14.53M42.41 14.53L43.19 14.53M42.41 14.53L42.8 15.21M42.8 15.21L43.19 14.53M42.02 15.21L42.8 15.21M42.02 15.21L42.41 15.88M42.41 15.88L42.8 15.21M40.84 15.88L42.41 15.88M40.84 15.88L41.63 17.24M41.63 17.24L42.41 15.88M40.84 15.88L41.63 15.88M40.84 15.88L41.23 16.56M41.23 16.56L41.63 15.88M41.63 15.88L42.41 15.88M41.63 15.88L42.02 16.56M42.02 16.56L42.41 15.88M41.23 16.56L42.02 16.56M41.23 16.56L41.63 17.24M41.63 17.24L42.02 16.56M35.38 17.24L41.63 17.24M35.38 17.24L38.5 22.65M38.5 22.65L41.63 17.24M35.38 17.24L38.5 17.24M35.38 17.24L36.94 19.94M36.94 19.94L38.5 17.24M35.38 17.24L36.94 17.24M35.38 17.24L36.16 18.59M36.16 18.59L36.94 17.24M35.38 17.24L36.16 17.24M35.38 17.24L35.77 17.91M35.77 17.91L36.16 17.24M36.16 17.24L36.94 17.24M36.16 17.24L36.55 17.91M36.55 17.91L36.94 17.24M35.77 17.91L36.55 17.91M35.77 17.91L36.16 18.59M36.16 18.59L36.55 17.91M36.94 17.24L38.5 17.24M36.94 17.24L37.72 18.59M37.72 18.59L38.5 17.24M36.94 17.24L37.72 17.24M36.94 17.24L37.33 17.91M37.33 17.91L37.72 17.24M37.72 17.24L38.5 17.24M37.72 17.24L38.11 17.91M38.11 17.91L38.5 17.24M37.33 17.91L38.11 17.91M37.33 17.91L37.72 18.59M37.72 18.59L38.11 17.91M36.16 18.59L37.72 18.59M36.16 18.59L36.94 19.94M36.94 19.94L37.72 18.59M36.16 18.59L36.94 18.59M36.16 18.59L36.55 19.27M36.55 19.27L36.94 18.59M36.94 18.59L37.72 18.59M36.94 18.59L37.33 19.27M37.33 19.27L37.72 18.59M36.55 19.27L37.33 19.27M36.55 19.27L36.94 19.94M36.94 19.94L37.33 19.27M38.5 17.24L41.63 17.24M38.5 17.24L40.06 19.94M40.06 19.94L41.63 17.24M38.5 17.24L40.06 17.24M38.5 17.24L39.28 18.59M39.28 18.59L40.06 17.24M38.5 17.24L39.28 17.24M38.5 17.24L38.89 17.91M38.89 17.91L39.28 17.24M39.28 17.24L40.06 17.24M39.28 17.24L39.67 17.91M39.67 17.91L40.06 17.24M38.89 17.91L39.67 17.91M38.89 17.91L39.28 18.59M39.28 18.59L39.67 17.91M40.06 17.24L41.63 17.24M40.06 17.24L40.84 18.59M40.84 18.59L41.63 17.24M40.06 17.24L40.84 17.24M40.06 17.24L40.45 17.91M40.45 17.91L40.84 17.24M40.84 17.24L41.63 17.24M40.84 17.24L41.23 17.91M41.23 17.91L41.63 17.24M40.45 17.91L41.23 17.91M40.45 17.91L40.84 18.59M40.84 18.59L41.23 17.91M39.28 18.59L40.84 18.59M39.28 18.59L40.06 19.94M40.06 19.94L40.84 18.59M39.28 18.59L40.06 18.59M39.28 18.59L39.67 19.27M39.67 19.27L40.06 18.59M40.06 18.59L40.84 18.59M40.06 18.59L40.45 19.27M40.45 19.27L40.84 18.59M39.67 19.27L40.45 19.27M39.67 19.27L40.06 19.94M40.06 19.94L40.45 19.27M36.94 19.94L40.06 19.94M36.94 19.94L38.5 22.65M38.5 22.65L40.06 19.94M36.94 19.94L38.5 19.94M36.94 19.94L37.72 21.3M37.72 21.3L38.5 19.94M36.94 19.94L37.72 19.94M36.94 19.94L37.33 20.62M37.33 20.62L37.72 19.94M37.72 19.94L38.5 19.94M37.72 19.94L38.11 20.62M38.11 20.62L38.5 19.94M37.33 20.62L38.11 20.62M37.33 20.62L37.72 21.3M37.72 21.3L38.11 20.62M38.5 19.94L40.06 19.94M38.5 19.94L39.28 21.3M39.28 21.3L40.06 19.94M38.5 19.94L39.28 19.94M38.5 19.94L38.89 20.62M38.89 20.62L39.28 19.94M39.28 19.94L40.06 19.94M39.28 19.94L39.67 20.62M39.67 20.62L40.06 19.94M38.89 20.62L39.67 20.62M38.89 20.62L39.28 21.3M39.28 21.3L39.67 20.62M37.72 21.3L39.28 21.3M37.72 21.3L38.5 22.65M38.5 22.65L39.28 21.3M37.72 21.3L38.5 21.3M37.72 21.3L38.11 21.97M38.11 21.97L38.5 21.3M38.5 21.3L39.28 21.3M38.5 21.3L38.89 21.97M38.89 21.97L39.28 21.3M38.11 21.97L38.89 21.97M38.11 21.97L38.5 22.65M38.5 22.65L38.89 21.97M13.5 22.65L38.5 22.65M13.5 22.65L26 44.3M26 44.3L38.5 22.65M13.5 22.65L26 22.65M13.5 22.65L19.75 33.48M19.75 33.48L26 22.65M13.5 22.65L19.75 22.65M13.5 22.65L16.63 28.06M16.63 28.06L19.75 22.65M13.5 22.65L16.63 22.65M13.5 22.65L15.06 25.36M15.06 25.36L16.63 22.65M13.5 22.65L15.06 22.65M13.5 22.65L14.28 24M14.28 24L15.06 22.65M13.5 22.65L14.28 22.65M13.5 22.65L13.89 23.33M13.89 23.33L14.28 22.65M14.28 22.65L15.06 22.65M14.28 22.65L14.67 23.33M14.67 23.33L15.06 22.65M13.89 23.33L14.67 23.33M13.89 23.33L14.28 24M14.28 24L14.67 23.33M15.06 22.65L16.63 22.65M15.06 22.65L15.84 24M15.84 24L16.63 22.65M15.06 22.65L15.84 22.65M15.06 22.65L15.45 23.33M15.45 23.33L15.84 22.65M15.84 22.65L16.63 22.65M15.84 22.65L16.23 23.33M16.23 23.33L16.63 22.65M15.45 23.33L16.23 23.33M15.45 23.33L15.84 24M15.84 24L16.23 23.33M14.28 24L15.84 24M14.28 24L15.06 25.36M15.06 25.36L15.84 24M14.28 24L15.06 24M14.28 24L14.67 24.68M14.67 24.68L15.06 24M15.06 24L15.84 24M15.06 24L15.45 24.68M15.45 24.68L15.84 24M14.67 24.68L15.45 24.68M14.67 24.68L15.06 25.36M15.06 25.36L15.45 24.68M16.63 22.65L19.75 22.65M16.63 22.65L18.19 25.36M18.19 25.36L19.75 22.65M16.63 22.65L18.19 22.65M16.63 22.65L17.41 24M17.41 24L18.19 22.65M16.63 22.65L17.41 22.65M16.63 22.65L17.02 23.33M17.02 23.33L17.41 22.65M17.41 22.65L18.19 22.65M17.41 22.65L17.8 23.33M17.8 23.33L18.19 22.65M17.02 23.33L17.8 23.33M17.02 23.33L17.41 24M17.41 24L17.8 23.33M18.19 22.65L19.75 22.65M18.19 22.65L18.97 24M18.97 24L19.75 22.65M18.19 22.65L18.97 22.65M18.19 22.65L18.58 23.33M18.58 23.33L18.97 22.65M18.97 22.65L19.75 22.65M18.97 22.65L19.36 23.33M19.36 23.33L19.75 22.65M18.58 23.33L19.36 23.33M18.58 23.33L18.97 24M18.97 24L19.36 23.33M17.41 24L18.97 24M17.41 24L18.19 25.36M18.19 25.36L18.97 24M17.41 24L18.19 24M17.41 24L17.8 24.68M17.8 24.68L18.19 24M18.19 24L18.97 24M18.19 24L18.58 24.68M18.58 24.68L18.97 24M17.8 24.68L18.58 24.68M17.8 24.68L18.19 25.36M18.19 25.36L18.58 24.68M15.06 25.36L18.19 25.36M15.06 25.36L16.63 28.06M16.63 28.06L18.19 25.36M15.06 25.36L16.63 25.36M15.06 25.36L15.84 26.71M15.84 26.71L16.63 25.36M15.06 25.36L15.84 25.36M15.06 25.36L15.45 26.03M15.45 26.03L15.84 25.36M15.84 25.36L16.63 25.36M15.84 25.36L16.23 26.03M16.23 26.03L16.63 25.36M15.45 26.03L16.23 26.03M15.45 26.03L15.84 26.71M15.84 26.71L16.23 26.03M16.63 25.36L18.19 25.36M16.63 25.36L17.41 26.71M17.41 26.71L18.19 25.36M16.63 25.36L17.41 25.36M16.63 25.36L17.02 26.03M17.02 26.03L17.41 25.36M17.41 25.36L18.19 25.36M17.41 25.36L17.8 26.03M17.8 26.03L18.19 25.36M17.02 26.03L17.8 26.03M17.02 26.03L17.41 26.71M17.41 26.71L17.8 26.03M15.84 26.71L17.41 26.71M15.84 26.71L16.63 28.06M16.63 28.06L17.41 26.71M15.84 26.71L16.63 26.71M15.84 26.71L16.23 27.39M16.23 27.39L16.63 26.71M16.63 26.71L17.41 26.71M16.63 26.71L17.02 27.39M17.02 27.39L17.41 26.71M16.23 27.39L17.02 27.39M16.23 27.39L16.63 28.06M16.63 28.06L17.02 27.39M19.75 22.65L26 22.65M19.75 22.65L22.88 28.06M22.88 28.06L26 22.65M19.75 22.65L22.88 22.65M19.75 22.65L21.31 25.36M21.31 25.36L22.88 22.65M19.75 22.65L21.31 22.65M19.75 22.65L20.53 24M20.53 24L21.31 22.65M19.75 22.65L20.53 22.65M19.75 22.65L20.14 23.33M20.14 23.33L20.53 22.65M20.53 22.65L21.31 22.65M20.53 22.65L20.92 23.33M20.92 23.33L21.31 22.65M20.14 23.33L20.92 23.33M20.14 23.33L20.53 24M20.53 24L20.92 23.33M21.31 22.65L22.88 22.65M21.31 22.65L22.09 24M22.09 24L22.88 22.65M21.31 22.65L22.09 22.65M21.31 22.65L21.7 23.33M21.7 23.33L22.09 22.65M22.09 22.65L22.88 22.65M22.09 22.65L22.48 23.33M22.48 23.33L22.88 22.65M21.7 23.33L22.48 23.33M21.7 23.33L22.09 24M22.09 24L22.48 23.33M20.53 24L22.09 24M20.53 24L21.31 25.36M21.31 25.36L22.09 24M20.53 24L21.31 24M20.53 24L20.92 24.68M20.92 24.68L21.31 24M21.31 24L22.09 24M21.31 24L21.7 24.68M21.7 24.68L22.09 24M20.92 24.68L21.7 24.68M20.92 24.68L21.31 25.36M21.31 25.36L21.7 24.68M22.88 22.65L26 22.65M22.88 22.65L24.44 25.36M24.44 25.36L26 22.65M22.88 22.65L24.44 22.65M22.88 22.65L23.66 24M23.66 24L24.44 22.65M22.88 22.65L23.66 22.65M22.88 22.65L23.27 23.33M23.27 23.33L23.66 22.65M23.66 22.65L24.44 22.65M23.66 22.65L24.05 23.33M24.05 23.33L24.44 22.65M23.27 23.33L24.05 23.33M23.27 23.33L23.66 24M23.66 24L24.05 23.33M24.44 22.65L26 22.65M24.44 22.65L25.22 24M25.22 24L26 22.65M24.44 22.65L25.22 22.65M24.44 22.65L24.83 23.33M24.83 23.33L25.22 22.65M25.22 22.65L26 22.65M25.22 22.65L25.61 23.33M25.61 23.33L26 22.65M24.83 23.33L25.61 23.33M24.83 23.33L25.22 24M25.22 24L25.61 23.33M23.66 24L25.22 24M23.66 24L24.44 25.36M24.44 25.36L25.22 24M23.66 24L24.44 24M23.66 24L24.05 24.68M24.05 24.68L24.44 24M24.44 24L25.22 24M24.44 24L24.83 24.68M24.83 24.68L25.22 24M24.05 24.68L24.83 24.68M24.05 24.68L24.44 25.36M24.44 25.36L24.83 24.68M21.31 25.36L24.44 25.36M21.31 25.36L22.88 28.06M22.88 28.06L24.44 25.36M21.31 25.36L22.88 25.36M21.31 25.36L22.09 26.71M22.09 26.71L22.88 25.36M21.31 25.36L22.09 25.36M21.31 25.36L21.7 26.03M21.7 26.03L22.09 25.36M22.09 25.36L22.88 25.36M22.09 25.36L22.48 26.03M22.48 26.03L22.88 25.36M21.7 26.03L22.48 26.03M21.7 26.03L22.09 26.71M22.09 26.71L22.48 26.03M22.88 25.36L24.44 25.36M22.88 25.36L23.66 26.71M23.66 26.71L24.44 25.36M22.88 25.36L23.66 25.36M22.88 25.36L23.27 26.03M23.27 26.03L23.66 25.36M23.66 25.36L24.44 25.36M23.66 25.36L24.05 26.03M24.05 26.03L24.44 25.36M23.27 26.03L24.05 26.03M23.27 26.03L23.66 26.71M23.66 26.71L24.05 26.03M22.09 26.71L23.66 26.71M22.09 26.71L22.88 28.06M22.88 28.06L23.66 26.71M22.09 26.71L22.88 26.71M22.09 26.71L22.48 27.39M22.48 27.39L22.88 26.71M22.88 26.71L23.66 26.71M22.88 26.71L23.27 27.39M23.27 27.39L23.66 26.71M22.48 27.39L23.27 27.39M22.48 27.39L22.88 28.06M22.88 28.06L23.27 27.39M16.63 28.06L22.88 28.06M16.63 28.06L19.75 33.48M19.75 33.48L22.88 28.06M16.63 28.06L19.75 28.06M16.63 28.06L18.19 30.77M18.19 30.77L19.75 28.06M16.63 28.06L18.19 28.06M16.63 28.06L17.41 29.42M17.41 29.42L18.19 28.06M16.63 28.06L17.41 28.06M16.63 28.06L17.02 28.74M17.02 28.74L17.41 28.06M17.41 28.06L18.19 28.06M17.41 28.06L17.8 28.74M17.8 28.74L18.19 28.06M17.02 28.74L17.8 28.74M17.02 28.74L17.41 29.42M17.41 29.42L17.8 28.74M18.19 28.06L19.75 28.06M18.19 28.06L18.97 29.42M18.97 29.42L19.75 28.06M18.19 28.06L18.97 28.06M18.19 28.06L18.58 28.74M18.58 28.74L18.97 28.06M18.97 28.06L19.75 28.06M18.97 28.06L19.36 28.74M19.36 28.74L19.75 28.06M18.58 28.74L19.36 28.74M18.58 28.74L18.97 29.42M18.97 29.42L19.36 28.74M17.41 29.42L18.97 29.42M17.41 29.42L18.19 30.77M18.19 30.77L18.97 29.42M17.41 29.42L18.19 29.42M17.41 29.42L17.8 30.09M17.8 30.09L18.19 29.42M18.19 29.42L18.97 29.42M18.19 29.42L18.58 30.09M18.58 30.09L18.97 29.42M17.8 30.09L18.58 30.09M17.8 30.09L18.19 30.77M18.19 30.77L18.58 30.09M19.75 28.06L22.88 28.06M19.75 28.06L21.31 30.77M21.31 30.77L22.88 28.06M19.75 28.06L21.31 28.06M19.75 28.06L20.53 29.42M20.53 29.42L21.31 28.06M19.75 28.06L20.53 28.06M19.75 28.06L20.14 28.74M20.14 28.74L20.53 28.06M20.53 28.06L21.31 28.06M20.53 28.06L20.92 28.74M20.92 28.74L21.31 28.06M20.14 28.74L20.92 28.74M20.14 28.74L20.53 29.42M20.53 29.42L20.92 28.74M21.31 28.06L22.88 28.06M21.31 28.06L22.09 29.42M22.09 29.42L22.88 28.06M21.31 28.06L22.09 28.06M21.31 28.06L21.7 28.74M21.7 28.74L22.09 28.06M22.09 28.06L22.88 28.06M22.09 28.06L22.48 28.74M22.48 28.74L22.88 28.06M21.7 28.74L22.48 28.74M21.7 28.74L22.09 29.42M22.09 29.42L22.48 28.74M20.53 29.42L22.09 29.42M20.53 29.42L21.31 30.77M21.31 30.77L22.09 29.42M20.53 29.42L21.31 29.42M20.53 29.42L20.92 30.09M20.92 30.09L21.31 29.42M21.31 29.42L22.09 29.42M21.31 29.42L21.7 30.09M21.7 30.09L22.09 29.42M20.92 30.09L21.7 30.09M20.92 30.09L21.31 30.77M21.31 30.77L21.7 30.09M18.19 30.77L21.31 30.77M18.19 30.77L19.75 33.48M19.75 33.48L21.31 30.77M18.19 30.77L19.75 30.77M18.19 30.77L18.97 32.12M18.97 32.12L19.75 30.77M18.19 30.77L18.97 30.77M18.19 30.77L18.58 31.45M18.58 31.45L18.97 30.77M18.97 30.77L19.75 30.77M18.97 30.77L19.36 31.45M19.36 31.45L19.75 30.77M18.58 31.45L19.36 31.45M18.58 31.45L18.97 32.12M18.97 32.12L19.36 31.45M19.75 30.77L21.31 30.77M19.75 30.77L20.53 32.12M20.53 32.12L21.31 30.77M19.75 30.77L20.53 30.77M19.75 30.77L20.14 31.45M20.14 31.45L20.53 30.77M20.53 30.77L21.31 30.77M20.53 30.77L20.92 31.45M20.92 31.45L21.31 30.77M20.14 31.45L20.92 31.45M20.14 31.45L20.53 32.12M20.53 32.12L20.92 31.45M18.97 32.12L20.53 32.12M18.97 32.12L19.75 33.48M19.75 33.48L20.53 32.12M18.97 32.12L19.75 32.12M18.97 32.12L19.36 32.8M19.36 32.8L19.75 32.12M19.75 32.12L20.53 32.12M19.75 32.12L20.14 32.8M20.14 32.8L20.53 32.12M19.36 32.8L20.14 32.8M19.36 32.8L19.75 33.48M19.75 33.48L20.14 32.8M26 22.65L38.5 22.65M26 22.65L32.25 33.48M32.25 33.48L38.5 22.65M26 22.65L32.25 22.65M26 22.65L29.13 28.06M29.13 28.06L32.25 22.65M26 22.65L29.13 22.65M26 22.65L27.56 25.36M27.56 25.36L29.13 22.65M26 22.65L27.56 22.65M26 22.65L26.78 24M26.78 24L27.56 22.65M26 22.65L26.78 22.65M26 22.65L26.39 23.33M26.39 23.33L26.78 22.65M26.78 22.65L27.56 22.65M26.78 22.65L27.17 23.33M27.17 23.33L27.56 22.65M26.39 23.33L27.17 23.33M26.39 23.33L26.78 24M26.78 24L27.17 23.33M27.56 22.65L29.13 22.65M27.56 22.65L28.34 24M28.34 24L29.13 22.65M27.56 22.65L28.34 22.65M27.56 22.65L27.95 23.33M27.95 23.33L28.34 22.65M28.34 22.65L29.13 22.65M28.34 22.65L28.73 23.33M28.73 23.33L29.13 22.65M27.95 23.33L28.73 23.33M27.95 23.33L28.34 24M28.34 24L28.73 23.33M26.78 24L28.34 24M26.78 24L27.56 25.36M27.56 25.36L28.34 24M26.78 24L27.56 24M26.78 24L27.17 24.68M27.17 24.68L27.56 24M27.56 24L28.34 24M27.56 24L27.95 24.68M27.95 24.68L28.34 24M27.17 24.68L27.95 24.68M27.17 24.68L27.56 25.36M27.56 25.36L27.95 24.68M29.13 22.65L32.25 22.65M29.13 22.65L30.69 25.36M30.69 25.36L32.25 22.65M29.13 22.65L30.69 22.65M29.13 22.65L29.91 24M29.91 24L30.69 22.65M29.13 22.65L29.91 22.65M29.13 22.65L29.52 23.33M29.52 23.33L29.91 22.65M29.91 22.65L30.69 22.65M29.91 22.65L30.3 23.33M30.3 23.33L30.69 22.65M29.52 23.33L30.3 23.33M29.52 23.33L29.91 24M29.91 24L30.3 23.33M30.69 22.65L32.25 22.65M30.69 22.65L31.47 24M31.47 24L32.25 22.65M30.69 22.65L31.47 22.65M30.69 22.65L31.08 23.33M31.08 23.33L31.47 22.65M31.47 22.65L32.25 22.65M31.47 22.65L31.86 23.33M31.86 23.33L32.25 22.65M31.08 23.33L31.86 23.33M31.08 23.33L31.47 24M31.47 24L31.86 23.33M29.91 24L31.47 24M29.91 24L30.69 25.36M30.69 25.36L31.47 24M29.91 24L30.69 24M29.91 24L30.3 24.68M30.3 24.68L30.69 24M30.69 24L31.47 24M30.69 24L31.08 24.68M31.08 24.68L31.47 24M30.3 24.68L31.08 24.68M30.3 24.68L30.69 25.36M30.69 25.36L31.08 24.68M27.56 25.36L30.69 25.36M27.56 25.36L29.13 28.06M29.13 28.06L30.69 25.36M27.56 25.36L29.13 25.36M27.56 25.36L28.34 26.71M28.34 26.71L29.13 25.36M27.56 25.36L28.34 25.36M27.56 25.36L27.95 26.03M27.95 26.03L28.34 25.36M28.34 25.36L29.13 25.36M28.34 25.36L28.73 26.03M28.73 26.03L29.13 25.36M27.95 26.03L28.73 26.03M27.95 26.03L28.34 26.71M28.34 26.71L28.73 26.03M29.13 25.36L30.69 25.36M29.13 25.36L29.91 26.71M29.91 26.71L30.69 25.36M29.13 25.36L29.91 25.36M29.13 25.36L29.52 26.03M29.52 26.03L29.91 25.36M29.91 25.36L30.69 25.36M29.91 25.36L30.3 26.03M30.3 26.03L30.69 25.36M29.52 26.03L30.3 26.03M29.52 26.03L29.91 26.71M29.91 26.71L30.3 26.03M28.34 26.71L29.91 26.71M28.34 26.71L29.13 28.06M29.13 28.06L29.91 26.71M28.34 26.71L29.13 26.71M28.34 26.71L28.73 27.39M28.73 27.39L29.13 26.71M29.13 26.71L29.91 26.71M29.13 26.71L29.52 27.39M29.52 27.39L29.91 26.71M28.73 27.39L29.52 27.39M28.73 27.39L29.13 28.06M29.13 28.06L29.52 27.39M32.25 22.65L38.5 22.65M32.25 22.65L35.38 28.06M35.38 28.06L38.5 22.65M32.25 22.65L35.38 22.65M32.25 22.65L33.81 25.36M33.81 25.36L35.38 22.65M32.25 22.65L33.81 22.65M32.25 22.65L33.03 24M33.03 24L33.81 22.65M32.25 22.65L33.03 22.65M32.25 22.65L32.64 23.33M32.64 23.33L33.03 22.65M33.03 22.65L33.81 22.65M33.03 22.65L33.42 23.33M33.42 23.33L33.81 22.65M32.64 23.33L33.42 23.33M32.64 23.33L33.03 24M33.03 24L33.42 23.33M33.81 22.65L35.38 22.65M33.81 22.65L34.59 24M34.59 24L35.38 22.65M33.81 22.65L34.59 22.65M33.81 22.65L34.2 23.33M34.2 23.33L34.59 22.65M34.59 22.65L35.38 22.65M34.59 22.65L34.98 23.33M34.98 23.33L35.38 22.65M34.2 23.33L34.98 23.33M34.2 23.33L34.59 24M34.59 24L34.98 23.33M33.03 24L34.59 24M33.03 24L33.81 25.36M33.81 25.36L34.59 24M33.03 24L33.81 24M33.03 24L33.42 24.68M33.42 24.68L33.81 24M33.81 24L34.59 24M33.81 24L34.2 24.68M34.2 24.68L34.59 24M33.42 24.68L34.2 24.68M33.42 24.68L33.81 25.36M33.81 25.36L34.2 24.68M35.38 22.65L38.5 22.65M35.38 22.65L36.94 25.36M36.94 25.36L38.5 22.65M35.38 22.65L36.94 22.65M35.38 22.65L36.16 24M36.16 24L36.94 22.65M35.38 22.65L36.16 22.65M35.38 22.65L35.77 23.33M35.77 23.33L36.16 22.65M36.16 22.65L36.94 22.65M36.16 22.65L36.55 23.33M36.55 23.33L36.94 22.65M35.77 23.33L36.55 23.33M35.77 23.33L36.16 24M36.16 24L36.55 23.33M36.94 22.65L38.5 22.65M36.94 22.65L37.72 24M37.72 24L38.5 22.65M36.94 22.65L37.72 22.65M36.94 22.65L37.33 23.33M37.33 23.33L37.72 22.65M37.72 22.65L38.5 22.65M37.72 22.65L38.11 23.33M38.11 23.33L38.5 22.65M37.33 23.33L38.11 23.33M37.33 23.33L37.72 24M37.72 24L38.11 23.33M36.16 24L37.72 24M36.16 24L36.94 25.36M36.94 25.36L37.72 24M36.16 24L36.94 24M36.16 24L36.55 24.68M36.55 24.68L36.94 24M36.94 24L37.72 24M36.94 24L37.33 24.68M37.33 24.68L37.72 24M36.55 24.68L37.33 24.68M36.55 24.68L36.94 25.36M36.94 25.36L37.33 24.68M33.81 25.36L36.94 25.36M33.81 25.36L35.38 28.06M35.38 28.06L36.94 25.36M33.81 25.36L35.38 25.36M33.81 25.36L34.59 26.71M34.59 26.71L35.38 25.36M33.81 25.36L34.59 25.36M33.81 25.36L34.2 26.03M34.2 26.03L34.59 25.36M34.59 25.36L35.38 25.36M34.59 25.36L34.98 26.03M34.98 26.03L35.38 25.36M34.2 26.03L34.98 26.03M34.2 26.03L34.59 26.71M34.59 26.71L34.98 26.03M35.38 25.36L36.94 25.36M35.38 25.36L36.16 26.71M36.16 26.71L36.94 25.36M35.38 25.36L36.16 25.36M35.38 25.36L35.77 26.03M35.77 26.03L36.16 25.36M36.16 25.36L36.94 25.36M36.16 25.36L36.55 26.03M36.55 26.03L36.94 25.36M35.77 26.03L36.55 26.03M35.77 26.03L36.16 26.71M36.16 26.71L36.55 26.03M34.59 26.71L36.16 26.71M34.59 26.71L35.38 28.06M35.38 28.06L36.16 26.71M34.59 26.71L35.38 26.71M34.59 26.71L34.98 27.39M34.98 27.39L35.38 26.71M35.38 26.71L36.16 26.71M35.38 26.71L35.77 27.39M35.77 27.39L36.16 26.71M34.98 27.39L35.77 27.39M34.98 27.39L35.38 28.06M35.38 28.06L35.77 27.39M29.13 28.06L35.38 28.06M29.13 28.06L32.25 33.48M32.25 33.48L35.38 28.06M29.13 28.06L32.25 28.06M29.13 28.06L30.69 30.77M30.69 30.77L32.25 28.06M29.13 28.06L30.69 28.06M29.13 28.06L29.91 29.42M29.91 29.42L30.69 28.06M29.13 28.06L29.91 28.06M29.13 28.06L29.52 28.74M29.52 28.74L29.91 28.06M29.91 28.06L30.69 28.06M29.91 28.06L30.3 28.74M30.3 28.74L30.69 28.06M29.52 28.74L30.3 28.74M29.52 28.74L29.91 29.42M29.91 29.42L30.3 28.74M30.69 28.06L32.25 28.06M30.69 28.06L31.47 29.42M31.47 29.42L32.25 28.06M30.69 28.06L31.47 28.06M30.69 28.06L31.08 28.74M31.08 28.74L31.47 28.06M31.47 28.06L32.25 28.06M31.47 28.06L31.86 28.74M31.86 28.74L32.25 28.06M31.08 28.74L31.86 28.74M31.08 28.74L31.47 29.42M31.47 29.42L31.86 28.74M29.91 29.42L31.47 29.42M29.91 29.42L30.69 30.77M30.69 30.77L31.47 29.42M29.91 29.42L30.69 29.42M29.91 29.42L30.3 30.09M30.3 30.09L30.69 29.42M30.69 29.42L31.47 29.42M30.69 29.42L31.08 30.09M31.08 30.09L31.47 29.42M30.3 30.09L31.08 30.09M30.3 30.09L30.69 30.77M30.69 30.77L31.08 30.09M32.25 28.06L35.38 28.06M32.25 28.06L33.81 30.77M33.81 30.77L35.38 28.06M32.25 28.06L33.81 28.06M32.25 28.06L33.03 29.42M33.03 29.42L33.81 28.06M32.25 28.06L33.03 28.06M32.25 28.06L32.64 28.74M32.64 28.74L33.03 28.06M33.03 28.06L33.81 28.06M33.03 28.06L33.42 28.74M33.42 28.74L33.81 28.06M32.64 28.74L33.42 28.74M32.64 28.74L33.03 29.42M33.03 29.42L33.42 28.74M33.81 28.06L35.38 28.06M33.81 28.06L34.59 29.42M34.59 29.42L35.38 28.06M33.81 28.06L34.59 28.06M33.81 28.06L34.2 28.74M34.2 28.74L34.59 28.06M34.59 28.06L35.38 28.06M34.59 28.06L34.98 28.74M34.98 28.74L35.38 28.06M34.2 28.74L34.98 28.74M34.2 28.74L34.59 29.42M34.59 29.42L34.98 28.74M33.03 29.42L34.59 29.42M33.03 29.42L33.81 30.77M33.81 30.77L34.59 29.42M33.03 29.42L33.81 29.42M33.03 29.42L33.42 30.09M33.42 30.09L33.81 29.42M33.81 29.42L34.59 29.42M33.81 29.42L34.2 30.09M34.2 30.09L34.59 29.42M33.42 30.09L34.2 30.09M33.42 30.09L33.81 30.77M33.81 30.77L34.2 30.09M30.69 30.77L33.81 30.77M30.69 30.77L32.25 33.48M32.25 33.48L33.81 30.77M30.69 30.77L32.25 30.77M30.69 30.77L31.47 32.12M31.47 32.12L32.25 30.77M30.69 30.77L31.47 30.77M30.69 30.77L31.08 31.45M31.08 31.45L31.47 30.77M31.47 30.77L32.25 30.77M31.47 30.77L31.86 31.45M31.86 31.45L32.25 30.77M31.08 31.45L31.86 31.45M31.08 31.45L31.47 32.12M31.47 32.12L31.86 31.45M32.25 30.77L33.81 30.77M32.25 30.77L33.03 32.12M33.03 32.12L33.81 30.77M32.25 30.77L33.03 30.77M32.25 30.77L32.64 31.45M32.64 31.45L33.03 30.77M33.03 30.77L33.81 30.77M33.03 30.77L33.42 31.45M33.42 31.45L33.81 30.77M32.64 31.45L33.42 31.45M32.64 31.45L33.03 32.12M33.03 32.12L33.42 31.45M31.47 32.12L33.03 32.12M31.47 32.12L32.25 33.48M32.25 33.48L33.03 32.12M31.47 32.12L32.25 32.12M31.47 32.12L31.86 32.8M31.86 32.8L32.25 32.12M32.25 32.12L33.03 32.12M32.25 32.12L32.64 32.8M32.64 32.8L33.03 32.12M31.86 32.8L32.64 32.8M31.86 32.8L32.25 33.48M32.25 33.48L32.64 32.8M19.75 33.48L32.25 33.48M19.75 33.48L26 44.3M26 44.3L32.25 33.48M19.75 33.48L26 33.48M19.75 33.48L22.88 38.89M22.88 38.89L26 33.48M19.75 33.48L22.88 33.48M19.75 33.48L21.31 36.18M21.31 36.18L22.88 33.48M19.75 33.48L21.31 33.48M19.75 33.48L20.53 34.83M20.53 34.83L21.31 33.48M19.75 33.48L20.53 33.48M19.75 33.48L20.14 34.15M20.14 34.15L20.53 33.48M20.53 33.48L21.31 33.48M20.53 33.48L20.92 34.15M20.92 34.15L21.31 33.48M20.14 34.15L20.92 34.15M20.14 34.15L20.53 34.83M20.53 34.83L20.92 34.15M21.31 33.48L22.88 33.48M21.31 33.48L22.09 34.83M22.09 34.83L22.88 33.48M21.31 33.48L22.09 33.48M21.31 33.48L21.7 34.15M21.7 34.15L22.09 33.48M22.09 33.48L22.88 33.48M22.09 33.48L22.48 34.15M22.48 34.15L22.88 33.48M21.7 34.15L22.48 34.15M21.7 34.15L22.09 34.83M22.09 34.83L22.48 34.15M20.53 34.83L22.09 34.83M20.53 34.83L21.31 36.18M21.31 36.18L22.09 34.83M20.53 34.83L21.31 34.83M20.53 34.83L20.92 35.51M20.92 35.51L21.31 34.83M21.31 34.83L22.09 34.83M21.31 34.83L21.7 35.51M21.7 35.51L22.09 34.83M20.92 35.51L21.7 35.51M20.92 35.51L21.31 36.18M21.31 36.18L21.7 35.51M22.88 33.48L26 33.48M22.88 33.48L24.44 36.18M24.44 36.18L26 33.48M22.88 33.48L24.44 33.48M22.88 33.48L23.66 34.83M23.66 34.83L24.44 33.48M22.88 33.48L23.66 33.48M22.88 33.48L23.27 34.15M23.27 34.15L23.66 33.48M23.66 33.48L24.44 33.48M23.66 33.48L24.05 34.15M24.05 34.15L24.44 33.48M23.27 34.15L24.05 34.15M23.27 34.15L23.66 34.83M23.66 34.83L24.05 34.15M24.44 33.48L26 33.48M24.44 33.48L25.22 34.83M25.22 34.83L26 33.48M24.44 33.48L25.22 33.48M24.44 33.48L24.83 34.15M24.83 34.15L25.22 33.48M25.22 33.48L26 33.48M25.22 33.48L25.61 34.15M25.61 34.15L26 33.48M24.83 34.15L25.61 34.15M24.83 34.15L25.22 34.83M25.22 34.83L25.61 34.15M23.66 34.83L25.22 34.83M23.66 34.83L24.44 36.18M24.44 36.18L25.22 34.83M23.66 34.83L24.44 34.83M23.66 34.83L24.05 35.51M24.05 35.51L24.44 34.83M24.44 34.83L25.22 34.83M24.44 34.83L24.83 35.51M24.83 35.51L25.22 34.83M24.05 35.51L24.83 35.51M24.05 35.51L24.44 36.18M24.44 36.18L24.83 35.51M21.31 36.18L24.44 36.18M21.31 36.18L22.88 38.89M22.88 38.89L24.44 36.18M21.31 36.18L22.88 36.18M21.31 36.18L22.09 37.54M22.09 37.54L22.88 36.18M21.31 36.18L22.09 36.18M21.31 36.18L21.7 36.86M21.7 36.86L22.09 36.18M22.09 36.18L22.88 36.18M22.09 36.18L22.48 36.86M22.48 36.86L22.88 36.18M21.7 36.86L22.48 36.86M21.7 36.86L22.09 37.54M22.09 37.54L22.48 36.86M22.88 36.18L24.44 36.18M22.88 36.18L23.66 37.54M23.66 37.54L24.44 36.18M22.88 36.18L23.66 36.18M22.88 36.18L23.27 36.86M23.27 36.86L23.66 36.18M23.66 36.18L24.44 36.18M23.66 36.18L24.05 36.86M24.05 36.86L24.44 36.18M23.27 36.86L24.05 36.86M23.27 36.86L23.66 37.54M23.66 37.54L24.05 36.86M22.09 37.54L23.66 37.54M22.09 37.54L22.88 38.89M22.88 38.89L23.66 37.54M22.09 37.54L22.88 37.54M22.09 37.54L22.48 38.21M22.48 38.21L22.88 37.54M22.88 37.54L23.66 37.54M22.88 37.54L23.27 38.21M23.27 38.21L23.66 37.54M22.48 38.21L23.27 38.21M22.48 38.21L22.88 38.89M22.88 38.89L23.27 38.21M26 33.48L32.25 33.48M26 33.48L29.13 38.89M29.13 38.89L32.25 33.48M26 33.48L29.13 33.48M26 33.48L27.56 36.18M27.56 36.18L29.13 33.48M26 33.48L27.56 33.48M26 33.48L26.78 34.83M26.78 34.83L27.56 33.48M26 33.48L26.78 33.48M26 33.48L26.39 34.15M26.39 34.15L26.78 33.48M26.78 33.48L27.56 33.48M26.78 33.48L27.17 34.15M27.17 34.15L27.56 33.48M26.39 34.15L27.17 34.15M26.39 34.15L26.78 34.83M26.78 34.83L27.17 34.15M27.56 33.48L29.13 33.48M27.56 33.48L28.34 34.83M28.34 34.83L29.13 33.48M27.56 33.48L28.34 33.48M27.56 33.48L27.95 34.15M27.95 34.15L28.34 33.48M28.34 33.48L29.13 33.48M28.34 33.48L28.73 34.15M28.73 34.15L29.13 33.48M27.95 34.15L28.73 34.15M27.95 34.15L28.34 34.83M28.34 34.83L28.73 34.15M26.78 34.83L28.34 34.83M26.78 34.83L27.56 36.18M27.56 36.18L28.34 34.83M26.78 34.83L27.56 34.83M26.78 34.83L27.17 35.51M27.17 35.51L27.56 34.83M27.56 34.83L28.34 34.83M27.56 34.83L27.95 35.51M27.95 35.51L28.34 34.83M27.17 35.51L27.95 35.51M27.17 35.51L27.56 36.18M27.56 36.18L27.95 35.51M29.13 33.48L32.25 33.48M29.13 33.48L30.69 36.18M30.69 36.18L32.25 33.48M29.13 33.48L30.69 33.48M29.13 33.48L29.91 34.83M29.91 34.83L30.69 33.48M29.13 33.48L29.91 33.48M29.13 33.48L29.52 34.15M29.52 34.15L29.91 33.48M29.91 33.48L30.69 33.48M29.91 33.48L30.3 34.15M30.3 34.15L30.69 33.48M29.52 34.15L30.3 34.15M29.52 34.15L29.91 34.83M29.91 34.83L30.3 34.15M30.69 33.48L32.25 33.48M30.69 33.48L31.47 34.83M31.47 34.83L32.25 33.48M30.69 33.48L31.47 33.48M30.69 33.48L31.08 34.15M31.08 34.15L31.47 33.48M31.47 33.48L32.25 33.48M31.47 33.48L31.86 34.15M31.86 34.15L32.25 33.48M31.08 34.15L31.86 34.15M31.08 34.15L31.47 34.83M31.47 34.83L31.86 34.15M29.91 34.83L31.47 34.83M29.91 34.83L30.69 36.18M30.69 36.18L31.47 34.83M29.91 34.83L30.69 34.83M29.91 34.83L30.3 35.51M30.3 35.51L30.69 34.83M30.69 34.83L31.47 34.83M30.69 34.83L31.08 35.51M31.08 35.51L31.47 34.83M30.3 35.51L31.08 35.51M30.3 35.51L30.69 36.18M30.69 36.18L31.08 35.51M27.56 36.18L30.69 36.18M27.56 36.18L29.13 38.89M29.13 38.89L30.69 36.18M27.56 36.18L29.13 36.18M27.56 36.18L28.34 37.54M28.34 37.54L29.13 36.18M27.56 36.18L28.34 36.18M27.56 36.18L27.95 36.86M27.95 36.86L28.34 36.18M28.34 36.18L29.13 36.18M28.34 36.18L28.73 36.86M28.73 36.86L29.13 36.18M27.95 36.86L28.73 36.86M27.95 36.86L28.34 37.54M28.34 37.54L28.73 36.86M29.13 36.18L30.69 36.18M29.13 36.18L29.91 37.54M29.91 37.54L30.69 36.18M29.13 36.18L29.91 36.18M29.13 36.18L29.52 36.86M29.52 36.86L29.91 36.18M29.91 36.18L30.69 36.18M29.91 36.18L30.3 36.86M30.3 36.86L30.69 36.18M29.52 36.86L30.3 36.86M29.52 36.86L29.91 37.54M29.91 37.54L30.3 36.86M28.34 37.54L29.91 37.54M28.34 37.54L29.13 38.89M29.13 38.89L29.91 37.54M28.34 37.54L29.13 37.54M28.34 37.54L28.73 38.21M28.73 38.21L29.13 37.54M29.13 37.54L29.91 37.54M29.13 37.54L29.52 38.21M29.52 38.21L29.91 37.54M28.73 38.21L29.52 38.21M28.73 38.21L29.13 38.89M29.13 38.89L29.52 38.21M22.88 38.89L29.13 38.89M22.88 38.89L26 44.3M26 44.3L29.13 38.89M22.88 38.89L26 38.89M22.88 38.89L24.44 41.59M24.44 41.59L26 38.89M22.88 38.89L24.44 38.89M22.88 38.89L23.66 40.24M23.66 40.24L24.44 38.89M22.88 38.89L23.66 38.89M22.88 38.89L23.27 39.57M23.27 39.57L23.66 38.89M23.66 38.89L24.44 38.89M23.66 38.89L24.05 39.57M24.05 39.57L24.44 38.89M23.27 39.57L24.05 39.57M23.27 39.57L23.66 40.24M23.66 40.24L24.05 39.57M24.44 38.89L26 38.89M24.44 38.89L25.22 40.24M25.22 40.24L26 38.89M24.44 38.89L25.22 38.89M24.44 38.89L24.83 39.57M24.83 39.57L25.22 38.89M25.22 38.89L26 38.89M25.22 38.89L25.61 39.57M25.61 39.57L26 38.89M24.83 39.57L25.61 39.57M24.83 39.57L25.22 40.24M25.22 40.24L25.61 39.57M23.66 40.24L25.22 40.24M23.66 40.24L24.44 41.59M24.44 41.59L25.22 40.24M23.66 40.24L24.44 40.24M23.66 40.24L24.05 40.92M24.05 40.92L24.44 40.24M24.44 40.24L25.22 40.24M24.44 40.24L24.83 40.92M24.83 40.92L25.22 40.24M24.05 40.92L24.83 40.92M24.05 40.92L24.44 41.59M24.44 41.59L24.83 40.92M26 38.89L29.13 38.89M26 38.89L27.56 41.59M27.56 41.59L29.13 38.89M26 38.89L27.56 38.89M26 38.89L26.78 40.24M26.78 40.24L27.56 38.89M26 38.89L26.78 38.89M26 38.89L26.39 39.57M26.39 39.57L26.78 38.89M26.78 38.89L27.56 38.89M26.78 38.89L27.17 39.57M27.17 39.57L27.56 38.89M26.39 39.57L27.17 39.57M26.39 39.57L26.78 40.24M26.78 40.24L27.17 39.57M27.56 38.89L29.13 38.89M27.56 38.89L28.34 40.24M28.34 40.24L29.13 38.89M27.56 38.89L28.34 38.89M27.56 38.89L27.95 39.57M27.95 39.57L28.34 38.89M28.34 38.89L29.13 38.89M28.34 38.89L28.73 39.57M28.73 39.57L29.13 38.89M27.95 39.57L28.73 39.57M27.95 39.57L28.34 40.24M28.34 40.24L28.73 39.57M26.78 40.24L28.34 40.24M26.78 40.24L27.56 41.59M27.56 41.59L28.34 40.24M26.78 40.24L27.56 40.24M26.78 40.24L27.17 40.92M27.17 40.92L27.56 40.24M27.56 40.24L28.34 40.24M27.56 40.24L27.95 40.92M27.95 40.92L28.34 40.24M27.17 40.92L27.95 40.92M27.17 40.92L27.56 41.59M27.56 41.59L27.95 40.92M24.44 41.59L27.56 41.59M24.44 41.59L26 44.3M26 44.3L27.56 41.59M24.44 41.59L26 41.59M24.44 41.59L25.22 42.95M25.22 42.95L26 41.59M24.44 41.59L25.22 41.59M24.44 41.59L24.83 42.27M24.83 42.27L25.22 41.59M25.22 41.59L26 41.59M25.22 41.59L25.61 42.27M25.61 42.27L26 41.59M24.83 42.27L25.61 42.27M24.83 42.27L25.22 42.95M25.22 42.95L25.61 42.27M26 41.59L27.56 41.59M26 41.59L26.78 42.95M26.78 42.95L27.56 41.59M26 41.59L26.78 41.59M26 41.59L26.39 42.27M26.39 42.27L26.78 41.59M26.78 41.59L27.56 41.59M26.78 41.59L27.17 42.27M27.17 42.27L27.56 41.59M26.39 42.27L27.17 42.27M26.39 42.27L26.78 42.95M26.78 42.95L27.17 42.27M25.22 42.95L26.78 42.95M25.22 42.95L26 44.3M26 44.3L26.78 42.95M25.22 42.95L26 42.95M25.22 42.95L25.61 43.62M25.61 43.62L26 42.95M26 42.95L26.78 42.95M26 42.95L26.39 43.62M26.39 43.62L26.78 42.95M25.61 43.62L26.39 43.62M25.61 43.62L26 44.3M26 44.3L26.39 43.62" stroke-opacity="1" stroke-linecap="round" stroke-miterlimit="10" stroke-width="0.01"/></g></svg>